<svg width="512" height="512" viewBox="0 0 512 512" fill="none" xmlns="http://www.w3.org/2000/svg">
<circle cx="256" cy="256" r="256" fill="url(#paint0_linearNo_smoking)"/>
<mask id="path-2-inside-1" fill="white">
<path d="M375.697 256H394V310H375.697V256ZM92 310H240.255L185.345 256H92V310Z"/>
</mask>
<path d="M375.697 256H394V310H375.697V256ZM92 310H240.255L185.345 256H92V310Z" stroke="url(#paint1_linearNo_smoking)" stroke-width="122" mask="url(#path-2-inside-1)"/>
<mask id="path-3-inside-2" fill="white">
<path d="M380 32.1143C379.604 31.9113 379.222 31.6822 378.857 31.4286C366.26 24.6773 353.107 19.0184 339.543 14.5143L333.371 12.4571C308.377 4.34421 282.278 0.142247 256 0C114.629 0 8.46041e-06 114.629 8.46041e-06 256C-0.0117413 301.68 12.2151 346.528 35.409 385.882C58.6029 425.235 91.9167 457.655 131.886 479.771C132.343 480 132.686 480.343 133.143 480.571C145.74 487.323 158.893 492.982 172.457 497.486L178.629 499.543C203.621 507.665 229.721 511.867 256 512C397.371 512 512 397.371 512 256C512.015 210.291 499.778 165.413 476.563 126.038C453.348 86.6626 420.003 54.2295 380 32.1143V32.1143ZM256 450.743C245.579 450.706 235.18 449.788 224.914 448C213.837 446.165 202.939 443.373 192.343 439.657C190.171 438.971 188 438.286 185.943 437.486C178.502 434.678 171.249 431.395 164.229 427.657C133.112 411.042 107.096 386.284 88.9588 356.029C70.822 325.775 61.2471 291.16 61.2571 255.886C61.2571 213.371 75.4286 174.286 98.6286 142.286L369.714 413.371C337.6 436.571 298.514 450.743 256 450.743V450.743ZM413.486 369.6L142.4 98.5143C174.4 75.4286 213.371 61.2571 256 61.2571C266.42 61.2993 276.819 62.2168 287.086 64C298.163 65.8353 309.061 68.6267 319.657 72.3429C321.714 73.0286 323.886 73.7143 326.057 74.5143C333.096 77.179 339.966 80.2705 346.629 83.7714C378.072 100.256 404.405 125.029 422.778 155.407C441.15 185.786 450.86 220.612 450.857 256.114C450.743 298.629 436.571 337.6 413.486 369.6V369.6Z"/>
</mask>
<path d="M380 32.1143C379.604 31.9113 379.222 31.6822 378.857 31.4286C366.26 24.6773 353.107 19.0184 339.543 14.5143L333.371 12.4571C308.377 4.34421 282.278 0.142247 256 0C114.629 0 8.46041e-06 114.629 8.46041e-06 256C-0.0117413 301.68 12.2151 346.528 35.409 385.882C58.6029 425.235 91.9167 457.655 131.886 479.771C132.343 480 132.686 480.343 133.143 480.571C145.74 487.323 158.893 492.982 172.457 497.486L178.629 499.543C203.621 507.665 229.721 511.867 256 512C397.371 512 512 397.371 512 256C512.015 210.291 499.778 165.413 476.563 126.038C453.348 86.6626 420.003 54.2295 380 32.1143V32.1143ZM256 450.743C245.579 450.706 235.18 449.788 224.914 448C213.837 446.165 202.939 443.373 192.343 439.657C190.171 438.971 188 438.286 185.943 437.486C178.502 434.678 171.249 431.395 164.229 427.657C133.112 411.042 107.096 386.284 88.9588 356.029C70.822 325.775 61.2471 291.16 61.2571 255.886C61.2571 213.371 75.4286 174.286 98.6286 142.286L369.714 413.371C337.6 436.571 298.514 450.743 256 450.743V450.743ZM413.486 369.6L142.4 98.5143C174.4 75.4286 213.371 61.2571 256 61.2571C266.42 61.2993 276.819 62.2168 287.086 64C298.163 65.8353 309.061 68.6267 319.657 72.3429C321.714 73.0286 323.886 73.7143 326.057 74.5143C333.096 77.179 339.966 80.2705 346.629 83.7714C378.072 100.256 404.405 125.029 422.778 155.407C441.15 185.786 450.86 220.612 450.857 256.114C450.743 298.629 436.571 337.6 413.486 369.6V369.6Z" stroke="url(#paint2_linearNo_smoking)" stroke-width="122" mask="url(#path-3-inside-2)"/>
<mask id="path-4-inside-3" fill="white">
<path d="M365.448 255.36H326.807L365.448 294.063V255.36ZM401.816 255.36H420V310H401.816V255.36ZM374.653 206.071C364.652 201.403 349.65 199.582 322.829 199.582H318.737C304.304 199.696 300.667 199.468 296.007 192.638C292.825 187.857 294.871 175.791 300.212 167.709C301.123 166.339 301.646 164.748 301.726 163.105C301.806 161.461 301.44 159.826 300.667 158.375C299.883 156.935 298.736 155.725 297.34 154.866C295.944 154.008 294.349 153.53 292.712 153.48C285.573 153.231 278.533 151.729 271.914 149.04C259.867 143.918 254.184 135.267 254.184 122.745C254.184 93.3761 278.96 91.2133 280.096 91.2133V73C266.458 73 236 85.5216 236 122.745C236 142.666 246.229 158.033 265.208 166.001C269.615 167.794 274.182 169.166 278.846 170.099C275.096 181.255 274.755 193.89 280.778 202.769C291.007 217.909 303.849 217.795 318.624 217.682H322.602C352.492 217.682 361.925 220.3 366.812 222.576C373.29 225.536 374.54 231.114 374.313 240.448V241.586H392.497V240.448C392.497 232.366 392.838 214.494 374.653 206.071V206.071Z"/>
</mask>
<path d="M365.448 255.36H326.807L365.448 294.063V255.36ZM401.816 255.36H420V310H401.816V255.36ZM374.653 206.071C364.652 201.403 349.65 199.582 322.829 199.582H318.737C304.304 199.696 300.667 199.468 296.007 192.638C292.825 187.857 294.871 175.791 300.212 167.709C301.123 166.339 301.646 164.748 301.726 163.105C301.806 161.461 301.44 159.826 300.667 158.375C299.883 156.935 298.736 155.725 297.34 154.866C295.944 154.008 294.349 153.53 292.712 153.48C285.573 153.231 278.533 151.729 271.914 149.04C259.867 143.918 254.184 135.267 254.184 122.745C254.184 93.3761 278.96 91.2133 280.096 91.2133V73C266.458 73 236 85.5216 236 122.745C236 142.666 246.229 158.033 265.208 166.001C269.615 167.794 274.182 169.166 278.846 170.099C275.096 181.255 274.755 193.89 280.778 202.769C291.007 217.909 303.849 217.795 318.624 217.682H322.602C352.492 217.682 361.925 220.3 366.812 222.576C373.29 225.536 374.54 231.114 374.313 240.448V241.586H392.497V240.448C392.497 232.366 392.838 214.494 374.653 206.071V206.071Z" stroke="url(#paint3_linearNo_smoking)" stroke-width="122" mask="url(#path-4-inside-3)"/>
<mask id="path-5-inside-4" fill="white">
<path d="M420 242C420 212.8 416.6 197.461 409.687 185.645C399.94 169.284 384.3 160.194 365.6 160.194H345.88C349.167 150.764 352 137.698 349.847 125.086C346.22 103.725 328.2 91 301 91V109.179C324.8 109.179 330.58 119.518 332.053 128.154C334.887 144.628 324.347 164.625 324.233 164.853C323.476 166.231 323.088 167.782 323.108 169.355C323.128 170.929 323.554 172.47 324.347 173.828C325.159 175.18 326.306 176.298 327.676 177.074C329.046 177.851 330.593 178.259 332.167 178.26H365.6C377.953 178.26 387.587 183.827 394.047 194.848C397.56 200.87 401.867 210.187 401.867 241.886H420V242Z"/>
</mask>
<path d="M420 242C420 212.8 416.6 197.461 409.687 185.645C399.94 169.284 384.3 160.194 365.6 160.194H345.88C349.167 150.764 352 137.698 349.847 125.086C346.22 103.725 328.2 91 301 91V109.179C324.8 109.179 330.58 119.518 332.053 128.154C334.887 144.628 324.347 164.625 324.233 164.853C323.476 166.231 323.088 167.782 323.108 169.355C323.128 170.929 323.554 172.47 324.347 173.828C325.159 175.18 326.306 176.298 327.676 177.074C329.046 177.851 330.593 178.259 332.167 178.26H365.6C377.953 178.26 387.587 183.827 394.047 194.848C397.56 200.87 401.867 210.187 401.867 241.886H420V242Z" stroke="url(#paint4_linearNo_smoking)" stroke-width="122" mask="url(#path-5-inside-4)"/>
<defs>
<linearGradient id="paint0_linearNo_smoking" x1="512" y1="0" x2="0" y2="512" gradientUnits="userSpaceOnUse">
<stop stop-color="#15AED4"/>
<stop offset="1" stop-opacity="0.27"/>
</linearGradient>
<linearGradient id="paint1_linearNo_smoking" x1="494" y1="6.99991" x2="9.99992" y2="495" gradientUnits="userSpaceOnUse">
<stop stop-color="white"/>
<stop offset="1" stop-color="#666666"/>
</linearGradient>
<linearGradient id="paint2_linearNo_smoking" x1="512" y1="0" x2="0" y2="512" gradientUnits="userSpaceOnUse">
<stop stop-color="white"/>
<stop offset="1" stop-color="#666666"/>
</linearGradient>
<linearGradient id="paint3_linearNo_smoking" x1="498" y1="11" x2="6" y2="493" gradientUnits="userSpaceOnUse">
<stop stop-color="white"/>
<stop offset="1" stop-color="#666666"/>
</linearGradient>
<linearGradient id="paint4_linearNo_smoking" x1="514" y1="8.99999" x2="12" y2="489" gradientUnits="userSpaceOnUse">
<stop stop-color="white"/>
<stop offset="1" stop-color="#666666"/>
</linearGradient>
</defs>
</svg>
