<svg className="ionicon up-on-hover" viewBox="0 0 512 512" fill="none" xmlns="http://www.w3.org/2000/svg">
    <title>Laravel</title>
    <mask id="path-1-inside-1-Laravel" fill="white">
        <path d="M505.562 216.116C502.282 212.255 478.743 180.798 466.053 163.845C459.303 154.833 453.973 147.713 451.733 144.759L451.553 144.519L451.353 144.289C446.133 137.912 438.713 130.606 427.574 130.606C425.762 130.632 423.955 130.793 422.164 131.088C421.794 131.142 421.414 131.208 421.014 131.252C418.564 131.547 410.954 132.892 392.874 136.152C378.874 138.656 357.765 142.463 354.565 142.791L353.855 142.856L353.165 142.998C343.165 144.945 336.545 149.802 333.605 157.425C332.055 161.45 330.385 169.62 336.545 179.147C338.075 181.575 343.375 189.603 352.485 203.395C358.545 212.583 365.355 222.886 371.234 231.833L259.896 260.281L150.658 64.5547L150.458 64.1828L150.228 63.8219L149.788 63.1109C145.318 55.9359 139.758 47 123.698 47C122.568 47 121.388 47 120.068 47.1203C115.468 47.3938 98.6485 48.8375 79.1788 50.5219C57.6891 52.3703 28.2795 54.8969 24.4596 55.0062H23.7296L22.9396 55.0938C13.7998 56.0672 7.16986 60.125 3.23991 67.125C-3.30999 78.8172 1.81994 91.9422 3.49991 96.2516C6.86986 104.969 37.5594 175.734 64.629 238.198C82.6287 279.695 101.208 322.603 102.728 326.409C105.401 333.52 109.977 339.58 115.856 343.794C121.734 348.008 128.641 350.18 135.668 350.023C138.984 350.007 142.29 349.604 145.528 348.82H145.738L145.938 348.766C159.798 345.069 203.767 332.862 235.136 324.058C237.036 327.689 239.036 331.528 241.136 335.477C263.066 377.586 279.036 408.047 284.296 415.823C286.996 419.969 294.996 432 310.055 432C315.515 432 320.515 430.469 325.795 428.839L327.325 428.369H327.445C337.975 425.087 478.133 371.319 485.313 367.83L485.533 367.72C490.973 365.084 499.193 361.103 501.712 350.877C503.362 344.183 501.892 337.391 497.333 330.686L497.263 330.587L497.193 330.489C496.343 329.286 493.193 324.791 488.923 318.567C479.793 305.366 465.043 284.037 452.083 265.477C469.453 260.555 490.883 254.419 495.463 252.844C506.932 249.092 510.402 241.152 511.462 236.733C512.252 233.288 513.282 224.483 505.562 216.116V216.116ZM185.567 279.761C167.757 284.322 155.348 287.505 147.678 289.495C141.008 274.905 127.938 246.128 115.178 218.041C85.4387 152.503 70.0789 118.761 61.999 101.119L70.1489 100.353C83.4887 99.0953 101.758 97.3781 111.928 96.4484C128.688 127.358 186.247 233.495 208.227 273.964L185.567 279.761ZM363.725 352.648C339.515 361.398 326.395 366.178 319.305 368.77C313.005 357.461 299.146 332.108 286.836 309.5L402.534 277.256C407.534 284.705 417.104 298.825 435.993 326.398C417.924 333.005 387.794 343.92 363.725 352.648ZM419.594 219.616L395.834 185.13C409.504 182.516 417.374 181.006 421.984 180.098L433.983 196.373L445.923 212.583C437.723 214.759 428.184 217.308 419.594 219.616Z" />
    </mask>
    <path d="M505.562 216.116C502.282 212.255 478.743 180.798 466.053 163.845C459.303 154.833 453.973 147.713 451.733 144.759L451.553 144.519L451.353 144.289C446.133 137.912 438.713 130.606 427.574 130.606C425.762 130.632 423.955 130.793 422.164 131.088C421.794 131.142 421.414 131.208 421.014 131.252C418.564 131.547 410.954 132.892 392.874 136.152C378.874 138.656 357.765 142.463 354.565 142.791L353.855 142.856L353.165 142.998C343.165 144.945 336.545 149.802 333.605 157.425C332.055 161.45 330.385 169.62 336.545 179.147C338.075 181.575 343.375 189.603 352.485 203.395C358.545 212.583 365.355 222.886 371.234 231.833L259.896 260.281L150.658 64.5547L150.458 64.1828L150.228 63.8219L149.788 63.1109C145.318 55.9359 139.758 47 123.698 47C122.568 47 121.388 47 120.068 47.1203C115.468 47.3938 98.6485 48.8375 79.1788 50.5219C57.6891 52.3703 28.2795 54.8969 24.4596 55.0062H23.7296L22.9396 55.0938C13.7998 56.0672 7.16986 60.125 3.23991 67.125C-3.30999 78.8172 1.81994 91.9422 3.49991 96.2516C6.86986 104.969 37.5594 175.734 64.629 238.198C82.6287 279.695 101.208 322.603 102.728 326.409C105.401 333.52 109.977 339.58 115.856 343.794C121.734 348.008 128.641 350.18 135.668 350.023C138.984 350.007 142.29 349.604 145.528 348.82H145.738L145.938 348.766C159.798 345.069 203.767 332.862 235.136 324.058C237.036 327.689 239.036 331.528 241.136 335.477C263.066 377.586 279.036 408.047 284.296 415.823C286.996 419.969 294.996 432 310.055 432C315.515 432 320.515 430.469 325.795 428.839L327.325 428.369H327.445C337.975 425.087 478.133 371.319 485.313 367.83L485.533 367.72C490.973 365.084 499.193 361.103 501.712 350.877C503.362 344.183 501.892 337.391 497.333 330.686L497.263 330.587L497.193 330.489C496.343 329.286 493.193 324.791 488.923 318.567C479.793 305.366 465.043 284.037 452.083 265.477C469.453 260.555 490.883 254.419 495.463 252.844C506.932 249.092 510.402 241.152 511.462 236.733C512.252 233.288 513.282 224.483 505.562 216.116V216.116ZM185.567 279.761C167.757 284.322 155.348 287.505 147.678 289.495C141.008 274.905 127.938 246.128 115.178 218.041C85.4387 152.503 70.0789 118.761 61.999 101.119L70.1489 100.353C83.4887 99.0953 101.758 97.3781 111.928 96.4484C128.688 127.358 186.247 233.495 208.227 273.964L185.567 279.761ZM363.725 352.648C339.515 361.398 326.395 366.178 319.305 368.77C313.005 357.461 299.146 332.108 286.836 309.5L402.534 277.256C407.534 284.705 417.104 298.825 435.993 326.398C417.924 333.005 387.794 343.92 363.725 352.648ZM419.594 219.616L395.834 185.13C409.504 182.516 417.374 181.006 421.984 180.098L433.983 196.373L445.923 212.583C437.723 214.759 428.184 217.308 419.594 219.616Z" fill="url(#paint0_linearLaravel)" stroke="url(#paint1_linearLaravel)" stroke-width="40" mask="url(#path-1-inside-1-Laravel)" />
    <defs>
        <linearGradient id="paint0_linearLaravel" x1="512" y1="47" x2="4.81471e-06" y2="432" gradientUnits="userSpaceOnUse">
            <stop stop-color="#15AED4" />
            <stop offset="1" stop-opacity="0.26" />
        </linearGradient>
        <linearGradient id="paint1_linearLaravel" x1="512" y1="47" x2="4.81471e-06" y2="432" gradientUnits="userSpaceOnUse">
            <stop stop-color="white" />
            <stop offset="1" stop-color="#666666" />
        </linearGradient>
    </defs>
</svg>