<svg width="1920" height="1080" viewBox="0 0 1920 1080" fill="none" xmlns="http://www.w3.org/2000/svg">
<g id="bg-hero" clip-path="url(#clip0)">
<g id="Vector 8" filter="url(#filter0_f)">
<path d="M1624.7 113.646C1559.01 68.408 1483.75 107.08 989.716 113.646C495.686 120.213 1556.28 465.336 1624.7 460.959C1693.13 456.581 1690.39 158.885 1624.7 113.646Z" fill="#00AAE0"/>
</g>
<g id="Vector 7" filter="url(#filter1_f)">
<path d="M246.163 857.336C51.3798 783.627 -3.15981 438.115 246.163 539.465C495.486 640.815 518.86 742.165 1060.36 857.336C1601.86 972.507 440.947 931.046 246.163 857.336Z" fill="#00AAE0"/>
</g>
<path id="bg-hero-line3" d="M0 1080C308.837 734.463 468.837 615.794 963.721 566.93C1458.6 518.066 1640.93 458.732 1920 183" stroke="url(#paint0_linear)" stroke-opacity="0.41"/>
<path id="bg-hero-line2" d="M0 742C714.419 446.547 725.581 470.503 1075.35 538.377C1425.12 606.251 1466.05 614.237 1920 518.414" stroke="url(#paint1_linear)" stroke-opacity="0.21"/>
<path id="bg-hero-line1" d="M0 242.549C500.713 170.501 659.212 258.56 871.745 486.71C1084.28 714.86 1257.19 882.971 1920 927" stroke="url(#paint2_linear)" stroke-opacity="0.39"/>
<rect id="Rectangle 14" x="403.41" y="705" width="16" height="16" transform="rotate(16 403.41 705)" fill="url(#paint3_linear)"/>
<rect id="Rectangle 15" x="550.595" y="245" width="12" height="12" transform="rotate(62 550.595 245)" fill="url(#paint4_linear)"/>
<rect id="Rectangle 16" x="1530.55" y="573.224" width="18" height="18" transform="rotate(39 1530.55 573.224)" fill="url(#paint5_linear)"/>
</g>
<defs>
<filter id="filter0_f" x="23" y="-744" width="2488" height="2041" filterUnits="userSpaceOnUse" color-interpolation-filters="sRGB">
<feFlood flood-opacity="0" result="BackgroundImageFix"/>
<feBlend mode="normal" in="SourceGraphic" in2="BackgroundImageFix" result="shape"/>
<feGaussianBlur stdDeviation="418" result="effect1_foregroundBlur"/>
</filter>
<filter id="filter1_f" x="-731" y="-289" width="2744" height="2028" filterUnits="userSpaceOnUse" color-interpolation-filters="sRGB">
<feFlood flood-opacity="0" result="BackgroundImageFix"/>
<feBlend mode="normal" in="SourceGraphic" in2="BackgroundImageFix" result="shape"/>
<feGaussianBlur stdDeviation="405" result="effect1_foregroundBlur"/>
</filter>
<linearGradient id="paint0_linear" x1="960" y1="183" x2="960" y2="1080" gradientUnits="userSpaceOnUse">
<stop stop-color="#00AAE0"/>
<stop offset="1" stop-color="#00AAE0" stop-opacity="0.38"/>
</linearGradient>
<linearGradient id="paint1_linear" x1="1972.09" y1="495.457" x2="-69.0182" y2="544.876" gradientUnits="userSpaceOnUse">
<stop offset="0.677083" stop-color="#00AAE0" stop-opacity="0.72"/>
<stop offset="1" stop-color="#00AAE0" stop-opacity="0"/>
</linearGradient>
<linearGradient id="paint2_linear" x1="960" y1="231.873" x2="960" y2="927" gradientUnits="userSpaceOnUse">
<stop offset="0.583333" stop-color="#00AAE0" stop-opacity="0.74"/>
<stop offset="1" stop-color="#00AAE0" stop-opacity="0"/>
</linearGradient>
<linearGradient id="paint3_linear" x1="419.41" y1="705" x2="400.882" y2="717.142" gradientUnits="userSpaceOnUse">
<stop stop-color="#00C2FF"/>
<stop offset="1" stop-color="#B9B9B9" stop-opacity="0"/>
</linearGradient>
<linearGradient id="paint4_linear" x1="562.595" y1="245" x2="548.699" y2="254.107" gradientUnits="userSpaceOnUse">
<stop stop-color="#00C2FF"/>
<stop offset="1" stop-color="#B9B9B9" stop-opacity="0"/>
</linearGradient>
<linearGradient id="paint5_linear" x1="1548.55" y1="573.224" x2="1527.71" y2="586.884" gradientUnits="userSpaceOnUse">
<stop stop-color="#00C2FF"/>
<stop offset="1" stop-color="#B9B9B9" stop-opacity="0"/>
</linearGradient>
<clipPath id="clip0">
<rect width="1920" height="1080" fill="white"/>
</clipPath>
</defs>
</svg>
