<svg width="101" height="101" viewBox="0 0 101 101" fill="none" xmlns="http://www.w3.org/2000/svg">
<rect x="0.0950317" y="0.0223999" width="100" height="100" fill="url(#paint0_linear)"/>
<path d="M41.4393 67.2902C41.3509 67.3522 41.2658 67.3458 41.1842 67.2711L32.2173 58.6075L32.1967 58.578C32.1347 58.4895 32.148 58.4143 32.2365 58.3524L33.0179 57.8052C33.1162 57.7364 33.2013 57.7427 33.2731 57.8243L40.0897 64.6096C40.1133 64.6223 40.13 64.6253 40.1398 64.6184C40.1496 64.6115 40.1526 64.5948 40.1487 64.5683L35.9124 55.9763C35.8701 55.874 35.8882 55.7954 35.9669 55.7403L36.6451 55.2654C36.7336 55.2034 36.8137 55.2133 36.8855 55.2949L43.5694 62.173C43.593 62.1858 43.6097 62.1887 43.6196 62.1819C43.6294 62.175 43.6324 62.1583 43.6284 62.1317L39.4658 53.4881C39.4236 53.3859 39.4417 53.3072 39.5204 53.2521L40.3018 52.7049C40.351 52.6705 40.3957 52.6612 40.436 52.6769C40.4862 52.6858 40.5235 52.7182 40.5481 52.7742L45.7403 64.0809C45.7925 64.1762 45.7694 64.2583 45.6711 64.3271L44.9486 64.833C44.8699 64.8881 44.7898 64.8783 44.7082 64.8036L38.0184 57.8856C37.9948 57.8728 37.9732 57.8733 37.9535 57.8871C37.9437 57.894 37.9456 57.9072 37.9594 57.9269L42.2016 66.5587C42.2537 66.6541 42.2355 66.7327 42.1471 66.7947L41.4393 67.2902ZM51.39 60.4985C50.6331 61.0285 49.8535 61.2228 49.0513 61.0813C48.2589 60.933 47.5908 60.4705 47.0471 59.694L43.2684 54.2974C42.7246 53.5209 42.5186 52.7349 42.6502 51.9396C42.7916 51.1374 43.2408 50.4713 43.9977 49.9413C44.7644 49.4044 45.5489 49.2067 46.3511 49.3482C47.1533 49.4896 47.8263 49.9486 48.37 50.7252L52.1488 56.1218C52.6856 56.8885 52.8868 57.6779 52.7522 58.4899C52.6108 59.2921 52.1567 59.9617 51.39 60.4985ZM50.7498 59.5843C51.202 59.2677 51.4625 58.8656 51.5312 58.378C51.6029 57.8737 51.4736 57.3856 51.1432 56.9138L47.2922 51.414C46.9549 50.9323 46.5405 50.6438 46.049 50.5485C45.5604 50.4365 45.09 50.5388 44.6378 50.8555C44.1955 51.1652 43.9434 51.5688 43.8815 52.0662C43.8128 52.5538 43.947 53.0385 44.2843 53.5201L48.1353 59.0199C48.4656 59.4918 48.8751 59.7837 49.3637 59.8957C49.8455 59.9979 50.3075 59.8941 50.7498 59.5843ZM59.8749 54.3815C59.7864 54.4435 59.6999 54.4455 59.6153 54.3875L54.9211 50.8844C54.8906 50.8618 54.8607 50.8608 54.8312 50.8815L53.5484 51.7797C53.5091 51.8072 53.5032 51.8407 53.5307 51.88L56.69 56.3919C56.7588 56.4902 56.7441 56.5737 56.6458 56.6426L55.8938 57.1691C55.7955 57.2379 55.7119 57.2232 55.6431 57.1249L48.6225 47.0985C48.5537 47.0002 48.5684 46.9166 48.6667 46.8478L51.0996 45.1443C51.8172 44.6418 52.583 44.5011 53.397 44.7222C54.2041 44.9335 54.9037 45.4618 55.4956 46.3071C55.943 46.9461 56.1908 47.5929 56.2391 48.2476C56.2873 48.9024 56.1409 49.4883 55.7999 50.0054C55.7674 50.0428 55.7699 50.0777 55.8073 50.1101L60.646 53.5999L60.702 53.6485C60.7502 53.7173 60.73 53.7827 60.6416 53.8447L59.8749 54.3815ZM50.2652 47.0909C50.2259 47.1184 50.22 47.1518 50.2475 47.1912L52.8596 50.9216C52.8871 50.9609 52.9206 50.9668 52.9599 50.9393L54.2869 50.0101C54.7391 49.6935 54.9823 49.2668 55.0167 48.73C55.0441 48.1834 54.8548 47.6201 54.4487 47.0402C54.0426 46.4602 53.5781 46.0897 53.055 45.9285C52.532 45.7674 52.0444 45.8451 51.5923 46.1617L50.2652 47.0909ZM62.431 52.5917C62.3327 52.6605 62.2491 52.6458 62.1803 52.5475L55.1597 42.5211C55.0909 42.4228 55.1056 42.3392 55.2039 42.2704L55.9559 41.7439C56.0542 41.675 56.1378 41.6898 56.2066 41.7881L59.5517 46.5653C59.5723 46.5948 59.5959 46.6076 59.6225 46.6037C59.649 46.5997 59.6569 46.5796 59.6461 46.5432L59.0951 39.6996C59.0961 39.5964 59.1309 39.5207 59.1998 39.4725L60.0255 38.8943C60.0844 38.853 60.1375 38.8452 60.1847 38.8707C60.225 38.8864 60.2476 38.9292 60.2526 38.999L60.7503 44.6054C60.7582 44.6585 60.7739 44.6914 60.7975 44.7042L67.453 48.8116L67.5091 48.8602C67.5641 48.9389 67.5474 49.0092 67.4589 49.0711L66.6185 49.6596C66.5399 49.7146 66.4583 49.7132 66.3737 49.6552L60.7402 46.1287C60.7028 46.0963 60.6782 46.1135 60.6665 46.1803L60.7434 48.2359C60.7405 48.2526 60.7528 48.2807 60.7803 48.32L63.2272 51.8145C63.296 51.9128 63.2813 51.9963 63.183 52.0652L62.431 52.5917ZM70.9086 46.8314C70.1812 47.3407 69.4228 47.5129 68.6334 47.3478C67.8439 47.1828 67.1773 46.712 66.6336 45.9354L66.3961 45.5963C66.3273 45.498 66.342 45.4144 66.4403 45.3456L67.1628 44.8397C67.2611 44.7709 67.3447 44.7856 67.4135 44.8839L67.62 45.1788C67.9848 45.6998 68.4135 46.0295 68.906 46.1681C69.3917 46.2968 69.8458 46.2132 70.2685 45.9172C70.6814 45.6281 70.9187 45.2349 70.9806 44.7374C71.0425 44.24 70.8979 43.7406 70.5469 43.2393C70.3128 42.9051 70.0444 42.6682 69.7416 42.5286C69.4418 42.3723 69.1218 42.2815 68.7816 42.2559C68.4444 42.2137 67.8993 42.1779 67.1462 42.1485C66.4001 42.129 65.795 42.0912 65.331 42.0352C64.8601 41.9694 64.4039 41.8201 63.9625 41.5871C63.5309 41.3473 63.143 40.9817 62.7988 40.4902C62.262 39.7235 62.0598 38.9641 62.1924 38.212C62.3182 37.4501 62.7349 36.8213 63.4427 36.3258C64.1897 35.8027 64.9565 35.632 65.743 35.8138C66.5324 35.9788 67.2093 36.4644 67.7737 37.2704L68.0319 37.639C68.1007 37.7373 68.0859 37.8209 67.9877 37.8897L67.2504 38.4059C67.1521 38.4748 67.0686 38.46 66.9997 38.3617L66.7313 37.9784C66.3665 37.4574 65.9413 37.1325 65.4556 37.0038C64.9729 36.8584 64.5153 36.9371 64.0828 37.24C63.6896 37.5153 63.465 37.8849 63.409 38.349C63.3462 38.8031 63.4937 39.2858 63.8516 39.797C64.065 40.1017 64.3083 40.3342 64.5816 40.4944C64.8579 40.6379 65.1814 40.7337 65.552 40.7818C65.9226 40.8299 66.4461 40.8662 67.1225 40.8907C68.0151 40.9102 68.7003 40.9578 69.1781 41.0334C69.6588 41.0924 70.0914 41.2289 70.4758 41.4432C70.8534 41.6476 71.2004 41.9759 71.517 42.4281C72.0814 43.2341 72.3047 44.0447 72.1869 44.8596C72.0621 45.6648 71.636 46.3221 70.9086 46.8314Z" fill="white"/>
<defs>
<linearGradient id="paint0_linear" x1="69.4756" y1="-7.18271" x2="1.49832" y2="101.847" gradientUnits="userSpaceOnUse">
<stop stop-color="#15AED4"/>
<stop offset="1" stop-color="#C4C4C4" stop-opacity="0"/>
</linearGradient>
</defs>
</svg>