<svg width="512" height="512" viewBox="0 0 512 512" fill="none" xmlns="http://www.w3.org/2000/svg">
<circle cx="256" cy="256" r="256" fill="url(#paint0_linearAt_circle)"/>
<mask id="path-2-inside-1" fill="white">
<path d="M256 0C114.658 0 0 114.597 0 256C0 397.403 114.609 512 256 512C397.391 512 512 397.391 512 256C512 114.609 397.354 0 256 0V0ZM409.625 250.166C406.117 290.326 388.96 311.335 375.163 321.871C361.366 332.406 344.8 337.034 330.511 334.474C323.889 333.288 317.565 330.81 311.901 327.179C306.238 323.549 301.344 318.839 297.502 313.317C283.02 327.403 263.548 335.179 243.348 334.942C234.429 335.01 225.595 333.201 217.421 329.632C209.247 326.064 201.915 320.815 195.902 314.228C181.895 298.942 174.978 276.862 177.046 253.637C180.738 210.56 215.089 183.003 247.04 177.969C280.517 172.689 311.323 186.018 324.455 201.92L329.194 207.655L321.391 269.662C319.926 287.311 325.428 298.56 336.517 300.554C339.458 301.071 346.486 300.394 354.203 294.486C362.474 288.148 372.837 274.794 375.249 247.138C378.142 214.474 369.895 186.597 351.557 166.535C332.492 145.735 303.446 134.732 267.582 134.732C201.12 134.732 142.277 189.415 136.406 256.578C133.6 288.825 143.385 318.954 163.975 341.415C184.111 363.397 212.357 375.557 243.557 375.557C266.942 375.557 281.231 373.034 304.455 364.751C308.761 363.217 313.499 363.456 317.629 365.415C321.758 367.375 324.94 370.895 326.474 375.2C328.008 379.505 327.769 384.244 325.809 388.373C323.85 392.503 320.33 395.684 316.025 397.219C289.169 406.782 270.88 410.018 243.557 410.018C202.597 410.018 165.317 393.945 138.572 364.763C111.434 335.089 98.4123 295.631 102.08 253.637C105.662 212.615 124.788 174.092 155.951 145.182C187.114 116.271 226.806 100.271 267.582 100.271C313.366 100.271 351.188 115.138 376.96 143.262C401.686 170.228 413.28 208.185 409.625 250.166V250.166Z"/>
</mask>
<path d="M256 0C114.658 0 0 114.597 0 256C0 397.403 114.609 512 256 512C397.391 512 512 397.391 512 256C512 114.609 397.354 0 256 0V0ZM409.625 250.166C406.117 290.326 388.96 311.335 375.163 321.871C361.366 332.406 344.8 337.034 330.511 334.474C323.889 333.288 317.565 330.81 311.901 327.179C306.238 323.549 301.344 318.839 297.502 313.317C283.02 327.403 263.548 335.179 243.348 334.942C234.429 335.01 225.595 333.201 217.421 329.632C209.247 326.064 201.915 320.815 195.902 314.228C181.895 298.942 174.978 276.862 177.046 253.637C180.738 210.56 215.089 183.003 247.04 177.969C280.517 172.689 311.323 186.018 324.455 201.92L329.194 207.655L321.391 269.662C319.926 287.311 325.428 298.56 336.517 300.554C339.458 301.071 346.486 300.394 354.203 294.486C362.474 288.148 372.837 274.794 375.249 247.138C378.142 214.474 369.895 186.597 351.557 166.535C332.492 145.735 303.446 134.732 267.582 134.732C201.12 134.732 142.277 189.415 136.406 256.578C133.6 288.825 143.385 318.954 163.975 341.415C184.111 363.397 212.357 375.557 243.557 375.557C266.942 375.557 281.231 373.034 304.455 364.751C308.761 363.217 313.499 363.456 317.629 365.415C321.758 367.375 324.94 370.895 326.474 375.2C328.008 379.505 327.769 384.244 325.809 388.373C323.85 392.503 320.33 395.684 316.025 397.219C289.169 406.782 270.88 410.018 243.557 410.018C202.597 410.018 165.317 393.945 138.572 364.763C111.434 335.089 98.4123 295.631 102.08 253.637C105.662 212.615 124.788 174.092 155.951 145.182C187.114 116.271 226.806 100.271 267.582 100.271C313.366 100.271 351.188 115.138 376.96 143.262C401.686 170.228 413.28 208.185 409.625 250.166V250.166Z" stroke="url(#paint1_linearAt_circle)" stroke-width="52" mask="url(#path-2-inside-1)"/>
<mask id="path-3-inside-2" fill="white">
<path d="M252.37 211.745C234.072 214.638 213.43 231.413 211.234 256.768C210 270.501 213.701 283.116 221.191 291.373C223.982 294.467 227.397 296.926 231.207 298.585C235.018 300.244 239.137 301.066 243.289 300.996C268.348 300.996 286.14 282.445 288.632 253.738C288.708 252.872 288.848 252.013 289.052 251.168L293 219.567C280.769 212.294 266.405 209.528 252.37 211.745V211.745Z"/>
</mask>
<path d="M252.37 211.745C234.072 214.638 213.43 231.413 211.234 256.768C210 270.501 213.701 283.116 221.191 291.373C223.982 294.467 227.397 296.926 231.207 298.585C235.018 300.244 239.137 301.066 243.289 300.996C268.348 300.996 286.14 282.445 288.632 253.738C288.708 252.872 288.848 252.013 289.052 251.168L293 219.567C280.769 212.294 266.405 209.528 252.37 211.745V211.745Z" stroke="url(#paint2_linearAt_circle)" stroke-width="40" mask="url(#path-3-inside-2)"/>
<defs>
<linearGradient id="paint0_linearAt_circle" x1="512" y1="0" x2="0" y2="512" gradientUnits="userSpaceOnUse">
<stop stop-color="#15AED4"/>
<stop offset="1" stop-opacity="0.28"/>
</linearGradient>
<linearGradient id="paint1_linearAt_circle" x1="512" y1="0" x2="0" y2="512" gradientUnits="userSpaceOnUse">
<stop stop-color="white"/>
<stop offset="1" stop-color="#666666"/>
</linearGradient>
<linearGradient id="paint2_linearAt_circle" x1="548" y1="35" x2="4.00003" y2="507" gradientUnits="userSpaceOnUse">
<stop stop-color="white"/>
<stop offset="1" stop-color="#666666"/>
</linearGradient>
</defs>
</svg>
