<svg width="512" height="512" viewBox="0 0 512 512" fill="none" xmlns="http://www.w3.org/2000/svg">
<path d="M102.619 23.0626L102.627 23.0697L102.634 23.0768C111.73 32.0253 123.593 47.875 134.731 64.8102C145.805 81.6487 155.626 98.738 160.767 109.765C164.289 117.338 166.786 122.788 168.436 127.235C170.069 131.637 170.58 134.323 170.584 136.344C170.59 140.052 168.989 144.01 160.641 155.375C159.376 157.098 158.031 158.863 156.661 160.661C152.454 166.183 148.014 172.01 144.951 177.82C140.435 186.387 138.19 195.918 140.72 207.7C143.059 218.596 150.641 234.626 161.521 251.818C172.575 269.283 187.597 288.835 205.63 306.809C223.663 324.785 242.967 339.465 260.188 350.191C277.171 360.769 292.891 367.976 303.75 370.292C315.514 372.801 325.068 370.627 333.683 366.144C339.747 362.987 345.744 358.397 351.44 354.037C353.072 352.788 354.679 351.558 356.256 350.386C368.599 341.217 372.412 339.572 375.821 339.576C377.594 339.578 380.049 340.065 384.349 341.82C388.702 343.596 394.056 346.284 401.668 350.118C412.77 355.717 430.033 365.608 446.946 376.549C464.012 387.589 479.948 399.206 488.913 408.235C494.117 413.491 497.464 417.111 499.594 419.815C500.638 421.141 501.259 422.084 501.625 422.743C501.822 423.099 501.925 423.335 501.975 423.467C501.94 423.616 501.866 423.879 501.713 424.299C501.446 425.031 501.061 425.916 500.448 427.28C500.371 427.451 500.291 427.628 500.209 427.81C499.673 428.997 499.025 430.435 498.355 432.036C493.924 442.54 488.536 452.614 482.258 462.13C469.733 480.943 460.08 490.169 445.962 496.745C439.109 499.937 429.265 503.507 411.837 501.334C393.945 499.103 367.653 490.756 328.414 468.781C264.626 433.009 221.32 402.803 164.758 346.403C108.108 289.916 80.9882 254.013 41.9743 183.143C3.09813 112.523 8.24647 77.9135 13.8767 65.8833C20.4498 51.8383 29.7517 42.2291 48.597 29.707C58.132 23.4446 68.2198 18.0672 78.7344 13.6421C80.3412 12.974 81.7843 12.3267 82.9759 11.7922C83.1563 11.7113 83.331 11.6329 83.4997 11.5575C84.8692 10.9446 85.7602 10.5598 86.4978 10.2919C86.9395 10.1315 87.2115 10.056 87.3618 10.022C87.4933 10.071 87.7344 10.1738 88.1033 10.3779C88.7632 10.7432 89.7065 11.3621 91.0329 12.4037C93.7392 14.529 97.3605 17.8683 102.619 23.0626ZM502.003 423.307C502.005 423.303 502.005 423.322 501.996 423.369C501.998 423.333 502.001 423.31 502.003 423.307ZM87.5151 9.99711C87.5131 9.99896 87.4892 10.0031 87.4496 10.0041C87.4974 9.99573 87.5172 9.99525 87.5151 9.99711Z" fill="url(#paint0_linearCall)" stroke="url(#paint1_linearCall)" stroke-width="20" stroke-miterlimit="10"/>
<defs>
<linearGradient id="paint0_linearCall" x1="512" y1="0" x2="0" y2="512" gradientUnits="userSpaceOnUse">
<stop stop-color="#15AED4"/>
<stop offset="1" stop-opacity="0.27"/>
</linearGradient>
<linearGradient id="paint1_linearCall" x1="512" y1="0" x2="0" y2="512" gradientUnits="userSpaceOnUse">
<stop stop-color="white"/>
<stop offset="1" stop-color="#666666"/>
</linearGradient>
</defs>
</svg>
