<svg className='ionicon up-on-hover' viewBox="0 0 512 512" fill="none" xmlns="http://www.w3.org/2000/svg">
<mask id="path-1-inside-Debian-1" fill="white">
<path d="M287.023 169.248C279.99 169.319 288.346 171.976 297.531 173.046C300.078 171.547 302.366 170.04 304.418 168.57C298.708 169.625 292.889 169.65 287.023 169.248Z"/>
</mask>
<path d="M287.023 169.248C279.99 169.319 288.346 171.976 297.531 173.046C300.078 171.547 302.366 170.04 304.418 168.57C298.708 169.625 292.889 169.65 287.023 169.248Z" stroke="url(#paint0_linearDebian)" stroke-width="40" mask="url(#path-1-inside-Debian-1)"/>
<mask id="path-2-inside-Debian-2" fill="white">
<path d="M324.765 162.147C328.969 157.782 332.02 153.007 333.098 148.07C332.151 151.587 329.633 154.624 327.241 157.835C314.093 164.083 325.998 154.126 327.232 150.336C313.099 163.774 325.283 158.393 324.765 162.147Z"/>
</mask>
<path d="M324.765 162.147C328.969 157.782 332.02 153.007 333.098 148.07C332.151 151.587 329.633 154.624 327.241 157.835C314.093 164.083 325.998 154.126 327.232 150.336C313.099 163.774 325.283 158.393 324.765 162.147Z" stroke="url(#paint1_linearDebian)" stroke-width="40" mask="url(#path-2-inside-Debian-2)"/>
<mask id="path-3-inside-Debian-3" fill="white">
<path d="M338.715 134.78C339.571 125.221 336.224 128.247 335.099 131.888C336.408 132.407 337.448 138.631 338.715 134.78Z"/>
</mask>
<path d="M338.715 134.78C339.571 125.221 336.224 128.247 335.099 131.888C336.408 132.407 337.448 138.631 338.715 134.78Z" stroke="url(#paint2_linearDebian)" stroke-width="40" mask="url(#path-3-inside-Debian-3)"/>
<mask id="path-4-inside-Debian-4" fill="white">
<path d="M260.34 4.13159C264.097 4.63601 268.456 5.02676 267.83 5.70525C271.954 5.01966 272.881 4.40156 260.34 4.13159Z"/>
</mask>
<path d="M260.34 4.13159C264.097 4.63601 268.456 5.02676 267.83 5.70525C271.954 5.01966 272.881 4.40156 260.34 4.13159Z" stroke="url(#paint3_linearDebian)" stroke-width="40" mask="url(#path-4-inside-Debian-4)"/>
<mask id="path-5-inside-Debian-5" fill="white">
<path d="M267.835 5.70483L265.194 6.12045L267.656 5.94994L267.835 5.70483Z"/>
</mask>
<path d="M267.835 5.70483L265.194 6.12045L267.656 5.94994L267.835 5.70483Z" stroke="url(#paint4_linearDebian)" stroke-width="40" mask="url(#path-5-inside-Debian-5)"/>
<mask id="path-6-inside-Debian-6" fill="white">
<path d="M384.911 138.403C385.335 146.986 381.592 151.156 378.207 158.531L372.12 160.815C367.144 168.111 372.615 165.447 369.051 171.248C361.274 176.459 345.484 187.549 340.428 188.565C336.733 188.505 342.928 185.276 343.738 184.015C333.338 189.4 335.391 192.1 319.484 195.378L319.022 194.593C279.807 208.518 225.33 180.928 226.045 143.288C225.631 145.675 224.854 145.078 223.988 146.037C221.964 126.674 235.842 107.225 259.249 99.2716C282.142 90.7248 308.981 94.2274 325.368 105.769C316.367 96.8667 298.435 87.4283 277.199 88.3022C256.386 88.5579 236.91 98.5363 230.414 109.374C219.756 114.436 218.513 128.898 213.871 131.548C207.614 166.218 225.626 181.191 256.099 198.813C260.882 201.25 257.445 201.623 258.086 203.478C247.964 199.904 238.699 194.505 231.073 187.894C235.122 192.359 239.486 196.7 245.13 200.11C235.578 197.677 222.825 182.658 219.111 182.047C235.564 204.277 285.856 221.033 312.205 212.717C300.012 213.058 284.529 212.905 270.839 209.087C265.072 206.852 257.262 202.231 258.66 201.368C294.608 211.495 331.733 209.033 362.832 190.224C370.75 185.571 379.394 177.66 381.893 177.553C378.132 181.823 382.538 179.606 379.648 183.375C387.519 173.781 376.216 179.468 387.792 166.807L392.067 171.248C390.466 163.276 405.178 153.607 403.681 141.011C407.056 137.16 407.442 145.16 403.864 154.019C408.831 144.19 405.178 142.609 406.449 134.496C407.819 137.224 409.641 140.119 410.568 143C407.329 133.498 413.878 127.004 415.506 121.48C413.896 120.948 410.512 125.679 409.73 114.461C409.848 109.587 411.533 111.907 412.178 110.706C410.916 110.156 407.588 106.419 405.568 99.2538C407.023 97.5665 409.485 103.62 411.481 103.865C410.196 98.1704 407.988 93.826 407.894 89.4531C402.057 80.2527 405.827 90.6822 401.101 85.503C394.887 70.8889 406.251 82.1106 407.023 75.4749C416.429 85.7588 421.791 101.708 424.263 108.312C422.38 100.259 419.343 92.4548 415.629 84.9062C418.496 85.8191 411.02 68.342 419.353 79.9153C410.46 55.2447 381.324 32.1905 354.514 21.3773C357.785 23.6401 361.923 26.4819 360.445 26.9295C347.104 20.9439 349.448 20.4715 347.537 17.9423C336.685 14.6067 335.96 18.2158 328.781 17.9494C308.303 9.75073 304.358 10.621 285.513 5.49155L286.37 8.51809C272.807 5.10791 270.566 9.80402 255.911 8.5252C255.021 8.00301 260.609 6.62118 265.213 6.12031C252.098 7.42754 252.71 4.16656 239.876 6.47909C243.035 4.80597 246.387 3.6941 249.758 2.27319C239.067 2.76341 224.223 6.9693 228.804 3.13995C211.362 9.01541 180.38 17.2602 162.995 29.5618L162.449 26.8052C154.483 34.0199 127.711 48.3533 125.578 57.7064L123.446 58.0794C119.307 63.3759 116.619 69.3757 113.333 74.8213C107.915 81.7944 105.387 77.5068 106.159 78.6009C95.4959 94.913 90.1903 108.618 85.6191 119.864C88.8769 123.541 85.6992 142.002 86.9279 156.776C81.5799 229.754 154.803 300.604 234.844 316.959C246.575 320.131 264.017 320.017 278.856 320.33C261.353 316.55 259.093 318.33 242.032 313.843C229.731 309.467 227.038 304.476 218.32 298.767L221.771 303.368C204.682 298.803 211.833 297.719 197.926 294.398L201.612 290.771C196.071 290.451 186.938 283.731 184.443 279.997L178.38 280.178C171.102 273.408 167.218 268.516 167.505 264.726L165.546 267.362C163.329 264.488 138.755 241.935 151.503 247.185C149.135 245.558 145.986 244.531 142.573 239.846L145.167 237.611C139.042 231.654 133.878 224.02 134.273 221.477C137.545 224.809 139.814 225.434 142.064 226.006C126.571 197.005 125.7 224.411 113.974 196.487L116.45 196.338C114.553 194.167 113.39 191.826 111.865 189.521L112.947 181.404C101.8 171.685 109.831 140.038 111.446 122.685C112.552 115.63 120.753 108.117 126.981 96.3339L123.187 95.8437C130.446 86.2952 164.624 57.4826 180.46 58.9604C188.129 51.6924 178.935 58.932 177.433 57.1061C194.282 43.952 199.578 47.8134 210.948 45.444C223.202 39.9557 200.426 47.5896 206.235 43.3517C227.434 39.2701 221.253 34.0661 248.901 31.9951C251.82 33.2455 242.136 33.9275 239.707 35.5509C257.361 29.0289 295.583 30.5173 320.42 39.1671C349.217 49.3302 381.592 79.3576 382.873 107.609L384.327 107.904C383.593 119.136 386.606 132.127 381.376 144.055L384.911 138.403Z"/>
</mask>
<path d="M384.911 138.403C385.335 146.986 381.592 151.156 378.207 158.531L372.12 160.815C367.144 168.111 372.615 165.447 369.051 171.248C361.274 176.459 345.484 187.549 340.428 188.565C336.733 188.505 342.928 185.276 343.738 184.015C333.338 189.4 335.391 192.1 319.484 195.378L319.022 194.593C279.807 208.518 225.33 180.928 226.045 143.288C225.631 145.675 224.854 145.078 223.988 146.037C221.964 126.674 235.842 107.225 259.249 99.2716C282.142 90.7248 308.981 94.2274 325.368 105.769C316.367 96.8667 298.435 87.4283 277.199 88.3022C256.386 88.5579 236.91 98.5363 230.414 109.374C219.756 114.436 218.513 128.898 213.871 131.548C207.614 166.218 225.626 181.191 256.099 198.813C260.882 201.25 257.445 201.623 258.086 203.478C247.964 199.904 238.699 194.505 231.073 187.894C235.122 192.359 239.486 196.7 245.13 200.11C235.578 197.677 222.825 182.658 219.111 182.047C235.564 204.277 285.856 221.033 312.205 212.717C300.012 213.058 284.529 212.905 270.839 209.087C265.072 206.852 257.262 202.231 258.66 201.368C294.608 211.495 331.733 209.033 362.832 190.224C370.75 185.571 379.394 177.66 381.893 177.553C378.132 181.823 382.538 179.606 379.648 183.375C387.519 173.781 376.216 179.468 387.792 166.807L392.067 171.248C390.466 163.276 405.178 153.607 403.681 141.011C407.056 137.16 407.442 145.16 403.864 154.019C408.831 144.19 405.178 142.609 406.449 134.496C407.819 137.224 409.641 140.119 410.568 143C407.329 133.498 413.878 127.004 415.506 121.48C413.896 120.948 410.512 125.679 409.73 114.461C409.848 109.587 411.533 111.907 412.178 110.706C410.916 110.156 407.588 106.419 405.568 99.2538C407.023 97.5665 409.485 103.62 411.481 103.865C410.196 98.1704 407.988 93.826 407.894 89.4531C402.057 80.2527 405.827 90.6822 401.101 85.503C394.887 70.8889 406.251 82.1106 407.023 75.4749C416.429 85.7588 421.791 101.708 424.263 108.312C422.38 100.259 419.343 92.4548 415.629 84.9062C418.496 85.8191 411.02 68.342 419.353 79.9153C410.46 55.2447 381.324 32.1905 354.514 21.3773C357.785 23.6401 361.923 26.4819 360.445 26.9295C347.104 20.9439 349.448 20.4715 347.537 17.9423C336.685 14.6067 335.96 18.2158 328.781 17.9494C308.303 9.75073 304.358 10.621 285.513 5.49155L286.37 8.51809C272.807 5.10791 270.566 9.80402 255.911 8.5252C255.021 8.00301 260.609 6.62118 265.213 6.12031C252.098 7.42754 252.71 4.16656 239.876 6.47909C243.035 4.80597 246.387 3.6941 249.758 2.27319C239.067 2.76341 224.223 6.9693 228.804 3.13995C211.362 9.01541 180.38 17.2602 162.995 29.5618L162.449 26.8052C154.483 34.0199 127.711 48.3533 125.578 57.7064L123.446 58.0794C119.307 63.3759 116.619 69.3757 113.333 74.8213C107.915 81.7944 105.387 77.5068 106.159 78.6009C95.4959 94.913 90.1903 108.618 85.6191 119.864C88.8769 123.541 85.6992 142.002 86.9279 156.776C81.5799 229.754 154.803 300.604 234.844 316.959C246.575 320.131 264.017 320.017 278.856 320.33C261.353 316.55 259.093 318.33 242.032 313.843C229.731 309.467 227.038 304.476 218.32 298.767L221.771 303.368C204.682 298.803 211.833 297.719 197.926 294.398L201.612 290.771C196.071 290.451 186.938 283.731 184.443 279.997L178.38 280.178C171.102 273.408 167.218 268.516 167.505 264.726L165.546 267.362C163.329 264.488 138.755 241.935 151.503 247.185C149.135 245.558 145.986 244.531 142.573 239.846L145.167 237.611C139.042 231.654 133.878 224.02 134.273 221.477C137.545 224.809 139.814 225.434 142.064 226.006C126.571 197.005 125.7 224.411 113.974 196.487L116.45 196.338C114.553 194.167 113.39 191.826 111.865 189.521L112.947 181.404C101.8 171.685 109.831 140.038 111.446 122.685C112.552 115.63 120.753 108.117 126.981 96.3339L123.187 95.8437C130.446 86.2952 164.624 57.4826 180.46 58.9604C188.129 51.6924 178.935 58.932 177.433 57.1061C194.282 43.952 199.578 47.8134 210.948 45.444C223.202 39.9557 200.426 47.5896 206.235 43.3517C227.434 39.2701 221.253 34.0661 248.901 31.9951C251.82 33.2455 242.136 33.9275 239.707 35.5509C257.361 29.0289 295.583 30.5173 320.42 39.1671C349.217 49.3302 381.592 79.3576 382.873 107.609L384.327 107.904C383.593 119.136 386.606 132.127 381.376 144.055L384.911 138.403Z" stroke="url(#paint5_linearDebian)" stroke-width="40" mask="url(#path-6-inside-Debian-6)"/>
<mask id="path-7-inside-Debian-7" fill="white">
<path d="M210.236 176.531L209.242 180.25C213.87 184.992 217.542 190.129 223.441 193.823C219.194 187.575 216.045 184.992 210.236 176.531Z"/>
</mask>
<path d="M210.236 176.531L209.242 180.25C213.87 184.992 217.542 190.129 223.441 193.823C219.194 187.575 216.045 184.992 210.236 176.531Z" stroke="url(#paint6_linearDebian)" stroke-width="40" mask="url(#path-7-inside-Debian-7)"/>
<mask id="path-8-inside-Debian-8" fill="white">
<path d="M221.163 176.21C218.715 174.164 217.275 171.706 215.646 169.262C217.2 173.564 220.382 177.262 223.334 181.027L221.163 176.21Z"/>
</mask>
<path d="M221.163 176.21C218.715 174.164 217.275 171.706 215.646 169.262C217.2 173.564 220.382 177.262 223.334 181.027L221.163 176.21Z" stroke="url(#paint7_linearDebian)" stroke-width="40" mask="url(#path-8-inside-Debian-8)"/>
<mask id="path-9-inside-Debian-9" fill="white">
<path d="M414.573 144.489L413.542 146.45C411.65 156.602 407.549 166.648 401.279 175.966C408.209 166.137 412.676 155.384 414.573 144.489Z"/>
</mask>
<path d="M414.573 144.489L413.542 146.45C411.65 156.602 407.549 166.648 401.279 175.966C408.209 166.137 412.676 155.384 414.573 144.489Z" stroke="url(#paint8_linearDebian)" stroke-width="40" mask="url(#path-9-inside-Debian-9)"/>
<mask id="path-10-inside-Debian-10" fill="white">
<path d="M261.74 1.58431C266.49 0.273525 273.424 0.863203 278.48 0C271.899 0.415616 265.35 0.664275 258.887 1.28592L261.74 1.58431Z"/>
</mask>
<path d="M261.74 1.58431C266.49 0.273525 273.424 0.863203 278.48 0C271.899 0.415616 265.35 0.664275 258.887 1.28592L261.74 1.58431Z" stroke="url(#paint9_linearDebian)" stroke-width="40" mask="url(#path-10-inside-Debian-10)"/>
<mask id="path-11-inside-Debian-11" fill="white">
<path d="M94.7517 68.5876C95.8485 76.2393 87.1252 79.2125 96.6818 74.1612C101.813 65.4439 94.6857 71.7563 94.7517 68.5876Z"/>
</mask>
<path d="M94.7517 68.5876C95.8485 76.2393 87.1252 79.2125 96.6818 74.1612C101.813 65.4439 94.6857 71.7563 94.7517 68.5876Z" stroke="url(#paint10_linearDebian)" stroke-width="40" mask="url(#path-11-inside-Debian-11)"/>
<mask id="path-12-inside-Debian-12" fill="white">
<path d="M83.5095 104.018C85.7174 98.913 86.1128 95.8509 86.9555 92.8918C80.8684 98.7673 84.1497 100.021 83.5095 104.018Z"/>
</mask>
<path d="M83.5095 104.018C85.7174 98.913 86.1128 95.8509 86.9555 92.8918C80.8684 98.7673 84.1497 100.021 83.5095 104.018Z" stroke="url(#paint11_linearDebian)" stroke-width="40" mask="url(#path-12-inside-Debian-12)"/>
<mask id="path-13-inside-Debian-13" fill="white">
<path d="M63.2574 445.832C63.0455 445.999 63.0455 472.495 62.6077 479.412C62.1746 485.003 61.5155 497.02 45.8106 497.02C29.6679 497.02 25.7417 483.028 24.433 476.943C22.9077 470.193 22.9077 464.591 22.9077 462.13C22.9077 454.226 23.562 432.163 48.2116 432.163C55.6309 432.163 59.7737 433.814 63.0455 435.125L63.2574 445.832ZM0 465.259C0 511.673 32.7232 511.673 37.5204 511.673C51.0456 511.673 59.7737 506.075 63.4786 496.367L63.9164 511.013C68.0639 510.846 72.2067 510.519 78.967 510.519C81.3679 510.519 83.3263 510.519 85.0776 510.686C86.8241 510.686 88.566 510.846 90.5291 511.013C87.0407 505.748 84.4232 493.898 84.4232 468.211C84.4232 443.193 84.4232 400.892 87.2572 388.051C79.4095 390.853 72.6398 392.665 57.8058 393.649C63.6952 398.423 63.6952 400.892 63.6952 422.614C59.5571 421.63 54.3174 420.476 45.3728 420.476C6.32715 420.479 0 446.159 0 465.259Z"/>
</mask>
<path d="M63.2574 445.832C63.0455 445.999 63.0455 472.495 62.6077 479.412C62.1746 485.003 61.5155 497.02 45.8106 497.02C29.6679 497.02 25.7417 483.028 24.433 476.943C22.9077 470.193 22.9077 464.591 22.9077 462.13C22.9077 454.226 23.562 432.163 48.2116 432.163C55.6309 432.163 59.7737 433.814 63.0455 435.125L63.2574 445.832ZM0 465.259C0 511.673 32.7232 511.673 37.5204 511.673C51.0456 511.673 59.7737 506.075 63.4786 496.367L63.9164 511.013C68.0639 510.846 72.2067 510.519 78.967 510.519C81.3679 510.519 83.3263 510.519 85.0776 510.686C86.8241 510.686 88.566 510.846 90.5291 511.013C87.0407 505.748 84.4232 493.898 84.4232 468.211C84.4232 443.193 84.4232 400.892 87.2572 388.051C79.4095 390.853 72.6398 392.665 57.8058 393.649C63.6952 398.423 63.6952 400.892 63.6952 422.614C59.5571 421.63 54.3174 420.476 45.3728 420.476C6.32715 420.479 0 446.159 0 465.259Z" stroke="url(#paint12_linearDebian)" stroke-width="40" mask="url(#path-13-inside-Debian-13)"/>
<mask id="path-14-inside-Debian-14" fill="white">
<path d="M118.305 456.854C118.526 443.192 122.236 431.012 137.719 431.012C154.738 431.012 156.037 445.164 155.604 456.854H118.305ZM177.198 458.506C177.198 439.246 172.184 420.312 139.899 420.312C95.4019 420.312 95.4019 457.522 95.4019 465.415C95.4019 498.828 115.25 511.996 148.627 511.996C163.452 511.996 170.659 510.359 174.585 509.528C174.369 503.602 175.456 499.816 176.774 494.715C172.184 496.86 166.295 499.656 153.208 499.656C119.176 499.656 118.738 476.275 118.738 468.211H176.774L177.198 458.506Z"/>
</mask>
<path d="M118.305 456.854C118.526 443.192 122.236 431.012 137.719 431.012C154.738 431.012 156.037 445.164 155.604 456.854H118.305ZM177.198 458.506C177.198 439.246 172.184 420.312 139.899 420.312C95.4019 420.312 95.4019 457.522 95.4019 465.415C95.4019 498.828 115.25 511.996 148.627 511.996C163.452 511.996 170.659 510.359 174.585 509.528C174.369 503.602 175.456 499.816 176.774 494.715C172.184 496.86 166.295 499.656 153.208 499.656C119.176 499.656 118.738 476.275 118.738 468.211H176.774L177.198 458.506Z" stroke="url(#paint13_linearDebian)" stroke-width="40" mask="url(#path-14-inside-Debian-14)"/>
<mask id="path-15-inside-Debian-15" fill="white">
<path d="M248.166 465.582C248.166 480.889 244.461 501.467 219.157 501.467C215.664 501.467 211.304 500.967 208.47 500.476C208.033 494.551 208.032 484.345 208.032 472.495C208.032 458.336 209.991 450.94 211.526 447.309C216.101 435.626 226.355 435.466 228.313 435.466C244.894 435.466 248.166 452.748 248.166 465.582ZM185.563 483.525C185.563 495.709 185.563 502.618 182.945 507.883C191.89 510.519 203.009 511.996 216.323 511.996C224.83 511.996 249.479 511.996 262.783 491.425C269.11 481.877 271.29 469.035 271.29 459.323C271.29 453.398 270.414 440.397 264.092 432.163C257.991 424.433 248.17 420.479 237.705 420.479C216.761 420.479 210.655 433.647 207.388 440.397C207.388 432.003 207.599 402.704 209.341 387.724C195.166 392.665 186.434 393.482 177.061 394.143C185.567 396.771 185.567 407.645 185.567 443.036V483.525"/>
</mask>
<path d="M208.47 500.476L188.525 501.95L189.675 517.522L205.061 520.184L208.47 500.476ZM211.526 447.309L229.947 455.097L230.051 454.851L230.148 454.603L211.526 447.309ZM182.945 507.883L165.037 498.979L154.422 520.328L177.292 527.067L182.945 507.883ZM262.783 491.425L246.111 480.378L246.05 480.471L245.989 480.564L262.783 491.425ZM264.092 432.163L279.955 419.982L279.874 419.876L279.791 419.771L264.092 432.163ZM207.388 440.397H187.388L225.389 449.111L207.388 440.397ZM209.341 387.724L229.207 390.034L232.893 358.333L202.758 368.838L209.341 387.724ZM177.061 394.143L175.654 374.192L171.156 413.251L177.061 394.143ZM228.166 465.582C228.166 472.342 227.203 476.895 225.845 479.239C225.373 480.053 225.01 480.331 224.657 480.527C224.244 480.756 222.739 481.467 219.157 481.467V521.467C238.443 521.467 252.546 512.943 260.455 499.291C267.276 487.519 268.166 474.129 268.166 465.582H228.166ZM219.157 481.467C217.132 481.467 213.962 481.129 211.879 480.769L205.061 520.184C208.647 520.804 214.195 521.467 219.157 521.467V481.467ZM228.416 499.003C228.047 494.011 228.032 484.765 228.032 472.495H188.032C188.032 483.926 188.018 495.091 188.525 501.95L228.416 499.003ZM228.032 472.495C228.032 460.002 229.786 455.479 229.947 455.097L193.104 439.522C190.196 446.401 188.032 456.669 188.032 472.495H228.032ZM230.148 454.603C230.258 454.323 230.324 454.23 230.301 454.267C230.276 454.305 230.194 454.421 230.043 454.575C229.715 454.907 229.332 455.146 229.015 455.287C228.741 455.408 228.559 455.44 228.494 455.45C228.395 455.464 228.285 455.466 228.313 455.466V415.466C224.708 415.466 202.318 415.977 192.903 440.016L230.148 454.603ZM228.313 455.466C228.784 455.466 228.055 455.521 227.051 454.828C226.211 454.249 226.157 453.814 226.482 454.481C226.836 455.205 227.308 456.574 227.663 458.722C228.008 460.814 228.166 463.172 228.166 465.582H268.166C268.166 458.092 267.31 446.939 262.432 436.942C259.867 431.684 255.886 426.127 249.77 421.906C243.489 417.572 236.133 415.466 228.313 415.466V455.466ZM165.563 483.525C165.563 489.928 165.547 493.743 165.305 496.63C165.079 499.327 164.756 499.543 165.037 498.979L200.854 516.787C203.752 510.958 204.737 505.088 205.166 499.967C205.578 495.038 205.563 489.306 205.563 483.525H165.563ZM177.292 527.067C188.515 530.374 201.619 531.996 216.323 531.996V491.996C204.399 491.996 195.265 490.663 188.598 488.698L177.292 527.067ZM216.323 531.996C223.781 531.996 259.751 532.942 279.577 502.286L245.989 480.564C239.207 491.051 225.879 491.996 216.323 491.996V531.996ZM279.455 502.473C288.773 488.411 291.29 471.156 291.29 459.323H251.29C251.29 466.914 249.447 475.343 246.111 480.378L279.455 502.473ZM291.29 459.323C291.29 455.514 291.019 449.381 289.669 442.667C288.369 436.198 285.746 427.524 279.955 419.982L248.229 444.343C248.76 445.035 249.736 446.979 250.454 450.55C251.123 453.877 251.29 457.207 251.29 459.323H291.29ZM279.791 419.771C269.132 406.268 252.942 400.479 237.705 400.479V440.479C243.399 440.479 246.849 442.598 248.393 444.554L279.791 419.771ZM237.705 400.479C222.536 400.479 210.902 405.443 202.47 413.103C194.687 420.172 190.902 428.55 189.386 431.683L225.389 449.111C227.14 445.495 228.042 443.913 229.365 442.711C229.893 442.231 230.572 441.76 231.622 441.366C232.7 440.961 234.596 440.479 237.705 440.479V400.479ZM227.388 440.397C227.388 431.706 227.625 403.639 229.207 390.034L189.475 385.414C187.573 401.768 187.388 432.299 187.388 440.397H227.388ZM202.758 368.838C190.896 372.973 184.101 373.597 175.654 374.192L178.467 414.093C188.766 413.367 199.437 412.356 215.925 406.609L202.758 368.838ZM171.156 413.251C168.926 412.562 166.441 410.824 164.95 408.404C164.014 406.885 164.316 406.398 164.704 409.122C165.514 414.814 165.567 424.535 165.567 443.036H205.567C205.567 426.146 205.621 412.735 204.304 403.485C203.629 398.738 202.335 392.828 199.007 387.425C195.124 381.12 189.449 377.038 182.965 375.034L171.156 413.251ZM165.567 443.036V483.525H205.567V443.036H165.567Z" fill="url(#paint14_linearDebian)" mask="url(#path-15-inside-Debian-15)"/>
<mask id="path-17-inside-Debian-16" fill="white">
<path d="M313.226 511.013C308.858 510.519 305.797 510.189 299.47 510.189C292.503 510.189 287.692 510.523 282.683 511.013C284.862 507.883 285.733 506.398 286.388 495.706C287.263 481.053 287.48 441.875 285.955 433.644C284.862 427.385 282.904 426.401 279.849 424.756C297.733 423.439 302.752 422.455 311.037 419.492C309.3 426.728 309.069 430.358 309.069 441.381C308.641 498.178 308.42 504.263 313.226 511.013Z"/>
</mask>
<path d="M313.226 511.013C308.858 510.519 305.797 510.189 299.47 510.189C292.503 510.189 287.692 510.523 282.683 511.013C284.862 507.883 285.733 506.398 286.388 495.706C287.263 481.053 287.48 441.875 285.955 433.644C284.862 427.385 282.904 426.401 279.849 424.756C297.733 423.439 302.752 422.455 311.037 419.492C309.3 426.728 309.069 430.358 309.069 441.381C308.641 498.178 308.42 504.263 313.226 511.013Z" stroke="url(#paint15_linearDebian)" stroke-width="40" mask="url(#path-17-inside-Debian-16)"/>
<mask id="path-18-inside-Debian-17" fill="white">
<path d="M383.079 464.424C382.646 474.797 382.425 482.04 378.711 487.798C374.13 495.208 366.499 497.347 360.826 497.347C347.725 497.347 344.9 489.12 344.9 481.056C344.9 465.586 363.227 464.424 371.508 464.424H383.079ZM323.084 484.676C323.084 495.048 327.232 505.414 339.453 509.862C344.905 511.673 350.356 511.673 352.107 511.673C372.181 511.673 378.937 500.476 383.084 493.564C382.863 500.807 383.084 505.247 383.739 511.012C387.665 510.845 391.591 510.519 398.139 510.519C401.844 510.519 405.337 510.845 409.042 511.012C406.641 508.217 405.337 506.565 404.674 500.146C404.241 493.894 404.241 487.638 404.241 478.914L404.462 445.334C404.462 432.82 400.093 420.476 367.37 420.476C345.78 420.476 333.131 425.417 326.804 427.886C329.426 431.509 331.605 434.628 333.564 441.715C342.08 436.116 353.204 433.154 364.54 433.154C382.656 433.154 382.656 442.208 382.656 455.043C378.508 454.883 375.015 454.556 369.121 454.556C341.407 454.56 323.084 462.613 323.084 484.676Z"/>
</mask>
<path d="M383.079 464.424C382.646 474.797 382.425 482.04 378.711 487.798C374.13 495.208 366.499 497.347 360.826 497.347C347.725 497.347 344.9 489.12 344.9 481.056C344.9 465.586 363.227 464.424 371.508 464.424H383.079ZM323.084 484.676C323.084 495.048 327.232 505.414 339.453 509.862C344.905 511.673 350.356 511.673 352.107 511.673C372.181 511.673 378.937 500.476 383.084 493.564C382.863 500.807 383.084 505.247 383.739 511.012C387.665 510.845 391.591 510.519 398.139 510.519C401.844 510.519 405.337 510.845 409.042 511.012C406.641 508.217 405.337 506.565 404.674 500.146C404.241 493.894 404.241 487.638 404.241 478.914L404.462 445.334C404.462 432.82 400.093 420.476 367.37 420.476C345.78 420.476 333.131 425.417 326.804 427.886C329.426 431.509 331.605 434.628 333.564 441.715C342.08 436.116 353.204 433.154 364.54 433.154C382.656 433.154 382.656 442.208 382.656 455.043C378.508 454.883 375.015 454.556 369.121 454.556C341.407 454.56 323.084 462.613 323.084 484.676Z" stroke="url(#paint16_linearDebian)" stroke-width="40" mask="url(#path-18-inside-Debian-17)"/>
<mask id="path-19-inside-Debian-18" fill="white">
<path d="M508.728 494.718C508.949 500.316 508.949 506.242 512 511.016C507.193 510.689 504.359 510.192 495.424 510.192C490.184 510.192 487.35 510.526 483.202 511.016C484.069 508.877 484.516 508.053 484.949 505.25C485.603 501.471 486.041 488.793 486.041 484.345V466.57C486.041 458.833 486.041 447.636 485.377 443.69C484.944 440.894 483.862 433.324 471.198 433.324C458.765 433.324 454.622 440.233 453.092 445.832C451.355 451.59 451.355 457.849 451.355 482.207C451.567 503.279 451.567 505.247 453.746 511.012C450.041 510.685 445.461 510.359 438.917 510.359C433.677 510.359 430.189 510.518 425.834 511.012C427.36 508.376 428.235 507.059 428.668 497.844C429.111 488.789 429.982 444.343 428.005 433.814C426.922 427.388 424.733 425.91 422.341 424.266C440.014 423.605 445.677 421.463 451.138 419.332V436.773C453.751 431.665 459.203 420.308 481.023 420.308C508.295 420.308 508.506 435.288 508.728 445.16V494.718"/>
</mask>
<path d="M512 511.016L510.643 530.97L550.202 533.659L528.853 500.247L512 511.016ZM483.202 511.016L464.665 503.507L451.971 534.846L485.55 530.878L483.202 511.016ZM484.949 505.25L465.242 501.839L465.211 502.017L465.184 502.196L484.949 505.25ZM485.377 443.69L465.613 446.751L465.633 446.879L465.654 447.007L485.377 443.69ZM453.092 445.832L472.24 451.608L472.315 451.357L472.385 451.104L453.092 445.832ZM451.355 482.207H431.355V482.307L431.356 482.408L451.355 482.207ZM453.746 511.012L451.989 530.935L483.718 533.734L472.454 503.94L453.746 511.012ZM425.834 511.012L408.524 500.995L388.638 535.358L428.088 530.885L425.834 511.012ZM428.668 497.844L408.692 496.868L408.691 496.886L408.691 496.905L428.668 497.844ZM428.005 433.814L408.283 437.137L408.314 437.322L408.348 437.505L428.005 433.814ZM422.341 424.266L421.594 404.28L361.265 406.535L411.008 440.745L422.341 424.266ZM451.138 419.332H471.138V390.056L443.867 400.7L451.138 419.332ZM451.138 436.773H431.138L468.944 445.881L451.138 436.773ZM508.728 445.16H528.728V444.936L528.723 444.712L508.728 445.16ZM488.743 495.508C488.883 499.044 488.53 511.429 495.146 521.785L528.853 500.247C529.376 501.066 529.258 501.408 529.089 500.263C529.006 499.7 528.933 498.943 528.872 497.845C528.805 496.639 528.778 495.605 528.712 493.928L488.743 495.508ZM513.356 491.062C509.458 490.797 505.264 490.192 495.424 490.192V530.192C503.453 530.192 504.928 530.581 510.643 530.97L513.356 491.062ZM495.424 490.192C488.993 490.192 485.233 490.637 480.855 491.154L485.55 530.878C489.467 530.415 491.375 530.192 495.424 530.192V490.192ZM501.739 518.524C501.821 518.323 501.901 518.13 501.997 517.896C502.086 517.681 502.205 517.392 502.322 517.103C502.564 516.504 502.888 515.678 503.214 514.7C503.928 512.556 504.374 510.511 504.714 508.305L465.184 502.196C465.131 502.536 465.108 502.618 465.126 502.54C465.152 502.431 465.199 502.254 465.262 502.065C465.314 501.91 465.337 501.866 465.238 502.111C465.184 502.243 465.123 502.391 465.02 502.642C464.924 502.873 464.8 503.174 464.665 503.507L501.739 518.524ZM504.656 508.662C505.24 505.288 505.543 499.832 505.72 495.959C505.919 491.592 506.041 486.983 506.041 484.345H466.041C466.041 486.155 465.945 490.108 465.761 494.138C465.671 496.123 465.565 497.997 465.451 499.532C465.32 501.286 465.225 501.937 465.242 501.839L504.656 508.662ZM506.041 484.345V466.57H466.041V484.345H506.041ZM506.041 466.57C506.041 462.74 506.042 457.808 505.954 453.319C505.878 449.396 505.722 444.07 505.1 440.372L465.654 447.007C465.624 446.825 465.704 447.329 465.79 448.922C465.866 450.326 465.923 452.084 465.962 454.098C466.041 458.128 466.041 462.663 466.041 466.57H506.041ZM505.142 440.628C504.936 439.303 504.038 431.468 498.106 424.497C491.44 416.664 481.734 413.324 471.198 413.324V453.324C472.409 453.324 472.241 453.508 471.287 453.128C470.203 452.696 468.837 451.824 467.643 450.42C465.526 447.933 465.385 445.28 465.613 446.751L505.142 440.628ZM471.198 413.324C461.059 413.324 451.964 416.25 444.906 422.41C438.15 428.306 435.183 435.497 433.8 440.559L472.385 451.104C472.531 450.567 472.4 451.505 471.207 452.547C470.601 453.076 470.044 453.336 469.781 453.425C469.568 453.498 469.94 453.324 471.198 453.324V413.324ZM433.944 440.055C432.383 445.232 431.837 450.127 431.589 456.23C431.351 462.073 431.355 470.247 431.355 482.207H471.355C471.355 469.809 471.359 462.674 471.555 457.859C471.741 453.302 472.064 452.189 472.24 451.608L433.944 440.055ZM431.356 482.408C431.553 502.012 431.31 508.221 435.039 518.085L472.454 503.94C472.039 502.841 471.977 502.572 471.957 502.487C471.941 502.419 471.848 502.028 471.753 500.8C471.521 497.814 471.464 492.964 471.354 482.006L431.356 482.408ZM455.504 491.09C451.399 490.728 446.208 490.359 438.917 490.359V530.359C444.714 530.359 448.684 530.643 451.989 530.935L455.504 491.09ZM438.917 490.359C433.135 490.359 428.868 490.54 423.581 491.14L428.088 530.885C431.511 530.497 434.22 530.359 438.917 530.359V490.359ZM443.145 521.03C443.914 519.7 445.82 516.603 447.036 511.857C448.03 507.974 448.418 503.647 448.646 498.783L408.691 496.905C408.594 498.951 408.485 500.284 408.387 501.149C408.288 502.011 408.225 502.171 408.286 501.934C408.378 501.575 408.555 501.062 408.797 500.552C408.889 500.359 408.946 500.26 408.908 500.328C408.838 500.453 408.777 500.558 408.524 500.995L443.145 521.03ZM448.645 498.82C448.887 493.857 449.218 480.138 449.244 466.42C449.257 459.525 449.194 452.445 448.994 446.333C448.81 440.708 448.479 434.479 447.661 430.123L408.348 437.505C408.347 437.497 408.36 437.568 408.384 437.735C408.407 437.898 408.436 438.12 408.469 438.409C408.535 438.993 408.604 439.747 408.673 440.682C408.811 442.56 408.926 444.906 409.015 447.642C409.194 453.108 409.257 459.679 409.244 466.344C409.218 479.745 408.892 492.776 408.692 496.868L448.645 498.82ZM447.727 430.491C446.873 425.427 445.254 420.278 441.955 415.645C438.67 411.033 434.693 408.487 433.674 407.787L411.008 440.745C412.381 441.689 410.694 440.704 409.373 438.849C408.036 436.972 408.053 435.775 408.283 437.137L447.727 430.491ZM423.089 444.252C442.936 443.51 450.81 440.929 458.41 437.963L443.867 400.7C441.432 401.651 439.913 402.222 437.296 402.759C434.423 403.349 429.764 403.974 421.594 404.28L423.089 444.252ZM431.138 419.332V436.773H471.138V419.332H431.138ZM468.944 445.881C470.257 443.314 470.611 442.842 471.25 442.339C471.559 442.096 473.8 440.308 481.023 440.308V400.308C466.425 400.308 455.03 404.199 446.506 410.911C438.31 417.364 434.632 425.124 433.332 427.666L468.944 445.881ZM481.023 440.308C486.134 440.308 488.543 441.027 489.335 441.347C489.855 441.558 489.261 441.395 488.641 440.511C488.165 439.832 488.267 439.551 488.426 440.48C488.615 441.583 488.672 442.896 488.733 445.608L528.723 444.712C528.638 440.92 528.935 428.309 521.397 417.554C512.666 405.095 498.039 400.308 481.023 400.308V440.308ZM488.728 445.16V494.718H528.728V445.16H488.728Z" fill="url(#paint17_linearDebian)" mask="url(#path-19-inside-Debian-18)"/>
<mask id="path-21-inside-Debian-19" fill="white">
<path d="M315.067 396.196L296.999 409.822L278.94 396.196L296.999 382.569L315.067 396.196Z"/>
</mask>
<path d="M315.067 396.196L296.999 409.822L278.94 396.196L296.999 382.569L315.067 396.196Z" stroke="url(#paint18_linearDebian)" stroke-width="40" mask="url(#path-21-inside-Debian-19)"/>
<defs>
<linearGradient id="paint0_linearDebian" x1="480" y1="18" x2="-18" y2="518" gradientUnits="userSpaceOnUse">
<stop stop-color="white"/>
<stop offset="1" stop-color="#666666"/>
</linearGradient>
<linearGradient id="paint1_linearDebian" x1="514" y1="5.99998" x2="-7.99999" y2="510" gradientUnits="userSpaceOnUse">
<stop stop-color="white"/>
<stop offset="1" stop-color="#666666"/>
</linearGradient>
<linearGradient id="paint2_linearDebian" x1="500" y1="-1.13503e-06" x2="-14" y2="512" gradientUnits="userSpaceOnUse">
<stop stop-color="white"/>
<stop offset="1" stop-color="#666666"/>
</linearGradient>
<linearGradient id="paint3_linearDebian" x1="506" y1="4.00037" x2="-10.0001" y2="516" gradientUnits="userSpaceOnUse">
<stop stop-color="white"/>
<stop offset="1" stop-color="#666666"/>
</linearGradient>
<linearGradient id="paint4_linearDebian" x1="518" y1="5.99999" x2="-10" y2="512" gradientUnits="userSpaceOnUse">
<stop stop-color="white"/>
<stop offset="1" stop-color="#666666"/>
</linearGradient>
<linearGradient id="paint5_linearDebian" x1="522" y1="2.00001" x2="-4.00003" y2="504" gradientUnits="userSpaceOnUse">
<stop stop-color="white"/>
<stop offset="1" stop-color="#666666"/>
</linearGradient>
<linearGradient id="paint6_linearDebian" x1="506" y1="4" x2="-8.00001" y2="512" gradientUnits="userSpaceOnUse">
<stop stop-color="white"/>
<stop offset="1" stop-color="#666666"/>
</linearGradient>
<linearGradient id="paint7_linearDebian" x1="518" y1="14" x2="-8" y2="510" gradientUnits="userSpaceOnUse">
<stop stop-color="white"/>
<stop offset="1" stop-color="#666666"/>
</linearGradient>
<linearGradient id="paint8_linearDebian" x1="506" y1="12" x2="-12" y2="504" gradientUnits="userSpaceOnUse">
<stop stop-color="white"/>
<stop offset="1" stop-color="#666666"/>
</linearGradient>
<linearGradient id="paint9_linearDebian" x1="506" y1="31.9996" x2="-8.0001" y2="508" gradientUnits="userSpaceOnUse">
<stop stop-color="white"/>
<stop offset="1" stop-color="#666666"/>
</linearGradient>
<linearGradient id="paint10_linearDebian" x1="504" y1="10" x2="-8.00002" y2="510" gradientUnits="userSpaceOnUse">
<stop stop-color="white"/>
<stop offset="1" stop-color="#666666"/>
</linearGradient>
<linearGradient id="paint11_linearDebian" x1="504" y1="8.00001" x2="-16" y2="502" gradientUnits="userSpaceOnUse">
<stop stop-color="white"/>
<stop offset="1" stop-color="#666666"/>
</linearGradient>
<linearGradient id="paint12_linearDebian" x1="530" y1="18" x2="1.76477e-05" y2="512" gradientUnits="userSpaceOnUse">
<stop stop-color="white"/>
<stop offset="1" stop-color="#666666"/>
</linearGradient>
<linearGradient id="paint13_linearDebian" x1="520" y1="10" x2="-4.45099e-06" y2="512" gradientUnits="userSpaceOnUse">
<stop stop-color="white"/>
<stop offset="1" stop-color="#666666"/>
</linearGradient>
<linearGradient id="paint14_linearDebian" x1="528" y1="6.00001" x2="-2.00002" y2="512" gradientUnits="userSpaceOnUse">
<stop stop-color="white"/>
<stop offset="1" stop-color="#666666"/>
</linearGradient>
<linearGradient id="paint15_linearDebian" x1="522" y1="-1.22423e-05" x2="-18" y2="511" gradientUnits="userSpaceOnUse">
<stop stop-color="white"/>
<stop offset="1" stop-color="#666666"/>
</linearGradient>
<linearGradient id="paint16_linearDebian" x1="518" y1="-10" x2="-5.99997" y2="512" gradientUnits="userSpaceOnUse">
<stop stop-color="white"/>
<stop offset="1" stop-color="#666666"/>
</linearGradient>
<linearGradient id="paint17_linearDebian" x1="512" y1="-1.99999" x2="-22" y2="511" gradientUnits="userSpaceOnUse">
<stop stop-color="white"/>
<stop offset="1" stop-color="#666666"/>
</linearGradient>
<linearGradient id="paint18_linearDebian" x1="528" y1="-8" x2="-7.99999" y2="522" gradientUnits="userSpaceOnUse">
<stop stop-color="white"/>
<stop offset="1" stop-color="#666666"/>
</linearGradient>
</defs>
</svg>