<svg width="512" height="512" viewBox="0 0 512 512" fill="none" xmlns="http://www.w3.org/2000/svg">
<path d="M58 369L38 467H134L276 487L408 435L472 353L488 233L436 107L334 31H220L90 91L26 219L58 369Z" fill="url(#paint0_linearWhatsapp)"/>
<path fillRule="evenodd" clipRule="evenodd" d="M437.405 74.401C413.737 50.7218 385.62 31.9578 354.671 19.1891C323.722 6.42048 290.553 -0.100645 257.074 0.00117416C116.571 0.00117416 2.19428 113.807 2.13714 253.715C2.07498 298.265 13.8182 342.036 36.1714 380.572L0 512L135.143 476.72C172.551 496.986 214.426 507.592 256.971 507.577H257.074C397.565 507.577 511.931 393.76 511.999 253.863C512.084 220.498 505.533 187.45 492.727 156.64C479.921 125.83 461.116 97.8753 437.405 74.401V74.401ZM257.074 464.754H256.982C219.055 464.766 181.818 454.616 149.143 435.36L141.405 430.789L61.2113 451.726L82.617 373.909L77.577 365.909C56.37 332.334 45.1342 293.427 45.1771 253.715C45.1771 137.452 140.274 42.8582 257.154 42.8582C313.222 42.7581 367.034 64.9328 406.755 104.505C446.475 144.078 468.85 197.807 468.959 253.875C468.914 370.149 373.862 464.754 257.074 464.754V464.754ZM373.291 306.823C366.925 303.646 335.577 288.309 329.771 286.195C323.965 284.081 319.68 283.018 315.44 289.372C311.2 295.726 298.982 309.943 295.268 314.229C291.554 318.515 287.84 318.983 281.474 315.806C275.108 312.629 254.571 305.943 230.24 284.343C211.303 267.532 198.525 246.778 194.811 240.435C191.097 234.092 194.411 230.652 197.6 227.498C200.468 224.652 203.965 220.092 207.154 216.389C210.343 212.686 211.405 210.035 213.52 205.806C215.634 201.578 214.583 197.875 212.994 194.709C211.405 191.544 198.663 160.332 193.36 147.635C188.183 135.269 182.937 136.949 179.028 136.755C175.314 136.572 171.028 136.527 166.811 136.527C163.587 136.61 160.415 137.358 157.493 138.723C154.571 140.087 151.962 142.04 149.828 144.458C143.988 150.812 127.531 166.172 127.531 197.349C127.531 228.526 150.388 258.698 153.543 262.926C156.697 267.155 198.457 331.189 262.354 358.652C274.219 363.733 286.342 368.189 298.674 372C313.931 376.823 327.817 376.149 338.788 374.515C351.028 372.697 376.502 359.177 381.794 344.366C387.085 329.555 387.097 316.869 385.508 314.229C383.919 311.589 379.668 309.989 373.291 306.823V306.823Z" fill="url(#paint1_linearWhatsapp)"/>
<defs>
<linearGradient id="paint0_linearWhatsapp" x1="257" y1="31" x2="257" y2="487" gradientUnits="userSpaceOnUse">
<stop stopColor="#15AED4"/>
<stop offset="1" stopOpacity="0.28"/>
</linearGradient>
<linearGradient id="paint1_linearWhatsapp" x1="512" y1="0" x2="0" y2="512" gradientUnits="userSpaceOnUse">
<stop stopColor="white"/>
<stop offset="1" stopColor="#666666"/>
</linearGradient>
</defs>
</svg>
