<svg className="ionicon up-on-hover" viewBox="0 0 512 512" fill="none" xmlns="http://www.w3.org/2000/svg">
    <mask id="path-1-inside-1-Sass" fill="white">
        <path d="M511.789 330.754C510.319 316.734 504.279 304.572 493.789 294.563C493.658 294.376 493.514 294.203 493.359 294.045L492.829 293.598L492.659 293.457L487.089 288.752L486.899 288.588L486.189 287.999C485.928 287.821 485.649 287.682 485.359 287.588C467.739 275.25 438.569 266.604 393.939 285.13C383.289 264.052 382.079 247.162 389.209 221.286C390.479 216.781 389.299 213.805 385.499 211.876C377.859 208.054 367.399 210.006 359.979 212.311C356.519 213.37 354.439 215.675 353.779 219.169C349.079 245.045 335.419 268.686 322.209 291.505L321.429 292.845C313.289 272.544 314.979 256.819 320.649 237.117C321.779 233.189 320.889 230.578 317.759 228.625C309.019 223.321 295.909 226.967 290.689 228.778C284.069 231.048 276.969 252.09 269.039 277.284C267.039 283.624 265.319 289.046 264.289 291.575C261.839 297.456 259.499 304.16 257.019 311.276C251.419 327.378 245.109 345.504 236.089 356.889C232.809 348.362 237.969 334.918 242.979 321.874C248.909 306.454 254.509 291.881 248.059 282.577C247.039 281.106 245.774 279.897 244.341 279.023C242.908 278.149 241.339 277.629 239.729 277.496C237.629 277.308 235.52 277.711 233.579 278.672C234.249 272.027 234.279 266.781 232.629 260.441C230.269 251.396 224.139 246.327 215.699 246.597C196.479 247.256 180.219 264.099 169.949 278.119C163.109 287.529 147.949 294.704 134.639 300.996C129.379 303.619 124.379 305.972 120.209 308.324C113.559 301.714 105.109 295.045 96.209 287.999C71.209 268.263 42.879 245.88 41.899 215.534C40.499 170.709 83.899 138.917 121.779 116.228C150.489 99.0557 175.449 87.6701 198.089 81.4481C229.889 72.7089 256.749 74.4732 277.909 86.6704C289.489 93.3394 294.909 107.842 291.469 122.756C282.469 161.512 245.179 188.07 213.289 200.02C194.079 207.218 177.729 210.23 163.289 209.242C145.189 208.007 130.409 197.327 124.089 192.775C123.076 191.961 122.006 191.253 120.889 190.658L120.599 190.575C120.027 190.408 119.426 190.429 118.864 190.636C118.301 190.844 117.798 191.23 117.409 191.752C116.109 193.575 116.569 196.456 117.039 197.915C123.189 216.816 135.889 228.755 154.779 233.401C160.961 234.857 167.254 235.562 173.559 235.506C217.769 235.506 274.179 205.525 294.899 180.836C309.029 164.017 319.319 146.727 323.579 116.91C328.029 85.6824 310.029 63.9816 291.689 53.9839C247.119 29.7896 196.499 39.3521 161.879 51.6316C121.379 65.9929 79.479 92.1044 46.939 123.297C6.81902 161.723 -7.68097 197.397 3.81902 229.449C15.629 262.3 44.429 282.848 72.279 302.725C81.279 309.136 89.839 315.24 97.549 321.544C95.229 322.874 92.859 324.226 90.449 325.579C67.069 338.905 40.549 353.902 25.839 378.684C15.159 396.739 13.159 414.711 19.899 432.107C23.499 441.363 29.899 447.644 38.789 450.773C43.4135 452.314 48.2028 453.063 53.009 452.996C70.319 452.996 89.369 444.763 99.739 437.153C118.059 423.626 129.929 405.466 135.029 383.177C139.569 363.346 138.479 343.645 131.879 326.061L154.329 312.747C143.499 355.09 151.799 380.378 160.919 394.327C164.279 399.467 170.339 402.561 177.109 402.702C183.879 402.843 190.109 399.844 193.629 394.739C200.289 385.035 205.209 373.685 209.739 362.335C209.499 369.745 209.799 377.249 211.949 383.612C213.879 389.34 217.059 393.139 221.159 394.598C225.519 396.162 230.629 394.845 235.549 390.893C257.719 373.05 272.879 330.225 285.059 295.798C286.789 290.905 288.449 286.2 290.059 281.801C293.072 294.485 297.264 306.74 302.559 318.345C303.739 320.862 303.639 321.968 302.039 324.038C299.629 327.143 296.269 330.895 292.709 334.871C281.929 346.903 268.509 361.923 266.709 375.132C266.009 380.425 269.109 385.247 273.919 386.341C288.389 389.728 305.819 384.777 320.559 373.109C333.959 362.523 338.999 347.762 335.559 329.366C332.229 311.653 339.829 289.658 358.149 263.946C361.149 278.684 365.149 290.599 370.669 301.032L370.519 301.173C357.179 314.875 338.899 333.636 341.739 356.395C341.977 358.56 342.596 360.642 343.557 362.509C344.518 364.376 345.799 365.987 347.319 367.24C348.943 368.529 350.776 369.41 352.704 369.827C354.631 370.244 356.611 370.188 358.519 369.663C375.989 365.346 389.139 356.654 398.699 343.116C408.259 329.578 404.769 314.57 401.549 302.925C426.549 294.951 448.809 295.151 469.649 303.513C481.349 308.218 489.739 315.946 494.579 326.614C500.669 340.034 497.379 352.42 485.289 361.488C481.579 364.276 479.789 365.981 479.679 368.134C479.654 368.633 479.732 369.132 479.906 369.589C480.08 370.045 480.345 370.446 480.679 370.756C482.079 372.109 486.399 374.461 496.169 367.228C505.169 360.582 510.449 351.537 511.799 340.175C512.07 337.043 512.067 333.886 511.789 330.754V330.754ZM112.059 360.229L111.959 361.735C110.399 378.954 102.959 393.963 89.809 406.43C81.549 414.264 72.579 419.074 64.559 419.992C58.959 420.627 54.889 419.733 52.469 417.322C50.659 415.522 49.689 412.829 49.469 409.089C47.829 379.119 87.789 349.338 110.279 339.54C111.884 346.264 112.486 353.264 112.059 360.229V360.229ZM214.409 275.708C210.709 300.514 199.919 347.338 182.959 365.511C182.149 366.381 181.469 366.687 181.159 366.604C180.849 366.522 180.609 366.087 180.359 365.428C174.699 349.997 176.789 323.932 185.359 303.455C191.949 287.67 201.359 277.214 211.879 274.05C212.316 273.908 212.766 273.833 213.219 273.826C213.573 273.797 213.925 273.909 214.219 274.144C214.343 274.374 214.424 274.633 214.456 274.902C214.489 275.172 214.473 275.446 214.409 275.708V275.708ZM297.899 366.134C294.709 370.051 290.339 369.521 291.369 368.086L307.609 347.809C306.299 354.784 302.429 360.559 297.899 366.134V366.134ZM365.269 348.597C363.724 349.492 362.053 350.046 360.339 350.232C359.879 339.564 368.669 327.555 377.339 319.545C379.669 330.672 374.899 342.434 365.269 348.597Z" />
    </mask>
    <path d="M511.789 330.754C510.319 316.734 504.279 304.572 493.789 294.563C493.658 294.376 493.514 294.203 493.359 294.045L492.829 293.598L492.659 293.457L487.089 288.752L486.899 288.588L486.189 287.999C485.928 287.821 485.649 287.682 485.359 287.588C467.739 275.25 438.569 266.604 393.939 285.13C383.289 264.052 382.079 247.162 389.209 221.286C390.479 216.781 389.299 213.805 385.499 211.876C377.859 208.054 367.399 210.006 359.979 212.311C356.519 213.37 354.439 215.675 353.779 219.169C349.079 245.045 335.419 268.686 322.209 291.505L321.429 292.845C313.289 272.544 314.979 256.819 320.649 237.117C321.779 233.189 320.889 230.578 317.759 228.625C309.019 223.321 295.909 226.967 290.689 228.778C284.069 231.048 276.969 252.09 269.039 277.284C267.039 283.624 265.319 289.046 264.289 291.575C261.839 297.456 259.499 304.16 257.019 311.276C251.419 327.378 245.109 345.504 236.089 356.889C232.809 348.362 237.969 334.918 242.979 321.874C248.909 306.454 254.509 291.881 248.059 282.577C247.039 281.106 245.774 279.897 244.341 279.023C242.908 278.149 241.339 277.629 239.729 277.496C237.629 277.308 235.52 277.711 233.579 278.672C234.249 272.027 234.279 266.781 232.629 260.441C230.269 251.396 224.139 246.327 215.699 246.597C196.479 247.256 180.219 264.099 169.949 278.119C163.109 287.529 147.949 294.704 134.639 300.996C129.379 303.619 124.379 305.972 120.209 308.324C113.559 301.714 105.109 295.045 96.209 287.999C71.209 268.263 42.879 245.88 41.899 215.534C40.499 170.709 83.899 138.917 121.779 116.228C150.489 99.0557 175.449 87.6701 198.089 81.4481C229.889 72.7089 256.749 74.4732 277.909 86.6704C289.489 93.3394 294.909 107.842 291.469 122.756C282.469 161.512 245.179 188.07 213.289 200.02C194.079 207.218 177.729 210.23 163.289 209.242C145.189 208.007 130.409 197.327 124.089 192.775C123.076 191.961 122.006 191.253 120.889 190.658L120.599 190.575C120.027 190.408 119.426 190.429 118.864 190.636C118.301 190.844 117.798 191.23 117.409 191.752C116.109 193.575 116.569 196.456 117.039 197.915C123.189 216.816 135.889 228.755 154.779 233.401C160.961 234.857 167.254 235.562 173.559 235.506C217.769 235.506 274.179 205.525 294.899 180.836C309.029 164.017 319.319 146.727 323.579 116.91C328.029 85.6824 310.029 63.9816 291.689 53.9839C247.119 29.7896 196.499 39.3521 161.879 51.6316C121.379 65.9929 79.479 92.1044 46.939 123.297C6.81902 161.723 -7.68097 197.397 3.81902 229.449C15.629 262.3 44.429 282.848 72.279 302.725C81.279 309.136 89.839 315.24 97.549 321.544C95.229 322.874 92.859 324.226 90.449 325.579C67.069 338.905 40.549 353.902 25.839 378.684C15.159 396.739 13.159 414.711 19.899 432.107C23.499 441.363 29.899 447.644 38.789 450.773C43.4135 452.314 48.2028 453.063 53.009 452.996C70.319 452.996 89.369 444.763 99.739 437.153C118.059 423.626 129.929 405.466 135.029 383.177C139.569 363.346 138.479 343.645 131.879 326.061L154.329 312.747C143.499 355.09 151.799 380.378 160.919 394.327C164.279 399.467 170.339 402.561 177.109 402.702C183.879 402.843 190.109 399.844 193.629 394.739C200.289 385.035 205.209 373.685 209.739 362.335C209.499 369.745 209.799 377.249 211.949 383.612C213.879 389.34 217.059 393.139 221.159 394.598C225.519 396.162 230.629 394.845 235.549 390.893C257.719 373.05 272.879 330.225 285.059 295.798C286.789 290.905 288.449 286.2 290.059 281.801C293.072 294.485 297.264 306.74 302.559 318.345C303.739 320.862 303.639 321.968 302.039 324.038C299.629 327.143 296.269 330.895 292.709 334.871C281.929 346.903 268.509 361.923 266.709 375.132C266.009 380.425 269.109 385.247 273.919 386.341C288.389 389.728 305.819 384.777 320.559 373.109C333.959 362.523 338.999 347.762 335.559 329.366C332.229 311.653 339.829 289.658 358.149 263.946C361.149 278.684 365.149 290.599 370.669 301.032L370.519 301.173C357.179 314.875 338.899 333.636 341.739 356.395C341.977 358.56 342.596 360.642 343.557 362.509C344.518 364.376 345.799 365.987 347.319 367.24C348.943 368.529 350.776 369.41 352.704 369.827C354.631 370.244 356.611 370.188 358.519 369.663C375.989 365.346 389.139 356.654 398.699 343.116C408.259 329.578 404.769 314.57 401.549 302.925C426.549 294.951 448.809 295.151 469.649 303.513C481.349 308.218 489.739 315.946 494.579 326.614C500.669 340.034 497.379 352.42 485.289 361.488C481.579 364.276 479.789 365.981 479.679 368.134C479.654 368.633 479.732 369.132 479.906 369.589C480.08 370.045 480.345 370.446 480.679 370.756C482.079 372.109 486.399 374.461 496.169 367.228C505.169 360.582 510.449 351.537 511.799 340.175C512.07 337.043 512.067 333.886 511.789 330.754V330.754ZM112.059 360.229L111.959 361.735C110.399 378.954 102.959 393.963 89.809 406.43C81.549 414.264 72.579 419.074 64.559 419.992C58.959 420.627 54.889 419.733 52.469 417.322C50.659 415.522 49.689 412.829 49.469 409.089C47.829 379.119 87.789 349.338 110.279 339.54C111.884 346.264 112.486 353.264 112.059 360.229V360.229ZM214.409 275.708C210.709 300.514 199.919 347.338 182.959 365.511C182.149 366.381 181.469 366.687 181.159 366.604C180.849 366.522 180.609 366.087 180.359 365.428C174.699 349.997 176.789 323.932 185.359 303.455C191.949 287.67 201.359 277.214 211.879 274.05C212.316 273.908 212.766 273.833 213.219 273.826C213.573 273.797 213.925 273.909 214.219 274.144C214.343 274.374 214.424 274.633 214.456 274.902C214.489 275.172 214.473 275.446 214.409 275.708V275.708ZM297.899 366.134C294.709 370.051 290.339 369.521 291.369 368.086L307.609 347.809C306.299 354.784 302.429 360.559 297.899 366.134V366.134ZM365.269 348.597C363.724 349.492 362.053 350.046 360.339 350.232C359.879 339.564 368.669 327.555 377.339 319.545C379.669 330.672 374.899 342.434 365.269 348.597Z" fill="url(#paint0_linearSass)" stroke="url(#paint1_linearSass)" strokeWidth="50" mask="url(#path-1-inside-1-Sass)" />
    <defs>
        <linearGradient id="paint0_linearSass" x1="512.009" y1="38.9756" x2="-49.9835" y2="367.467" gradientUnits="userSpaceOnUse">
            <stop stopColor="#15AED4" />
            <stop offset="1" stopOpacity="0.26" />
        </linearGradient>
        <linearGradient id="paint1_linearSass" x1="512.009" y1="38.9756" x2="-49.9835" y2="367.467" gradientUnits="userSpaceOnUse">
            <stop stopColor="white" />
            <stop offset="1" stopColor="#666666" />
        </linearGradient>
    </defs>
</svg>