<svg className="ionicon up-on-hover" viewBox="0 0 379 512" fill="none" xmlns="http://www.w3.org/2000/svg">
<path d="M122.162 395.797C122.162 395.797 102.631 407.155 136.061 410.999C176.56 415.619 197.259 414.956 241.89 406.509C241.89 406.509 253.624 413.867 270.011 420.239C169.961 463.119 43.5777 417.755 122.162 395.797Z" fill="url(#paint0_linearJava)"/>
<path d="M109.935 339.842C109.935 339.842 88.0292 356.057 121.484 359.518C164.747 363.981 198.912 364.346 258.032 352.962C258.032 352.962 266.209 361.252 279.067 365.785C158.1 401.158 23.3652 368.575 109.935 339.842Z" fill="url(#paint1_linearJava)"/>
<path d="M213.001 244.923C237.653 273.306 206.524 298.847 206.524 298.847C206.524 298.847 269.12 266.533 240.373 226.068C213.523 188.332 192.933 169.582 304.399 104.936C304.399 104.936 129.435 148.634 213.001 244.923Z" fill="url(#paint2_linearJava)"/>
<path d="M345.326 437.185C345.326 437.185 359.779 449.094 329.408 458.307C271.658 475.802 89.0457 481.084 38.3168 459.004C20.081 451.071 54.2782 440.062 65.0353 437.751C76.2539 435.319 82.665 435.772 82.665 435.772C62.385 421.486 -48.4167 463.824 26.3832 475.949C230.373 509.03 398.238 461.052 345.326 437.185Z" fill="url(#paint3_linearJava)"/>
<path d="M131.553 281.866C131.553 281.866 38.6649 303.929 98.6591 311.94C123.991 315.332 174.488 314.565 221.525 310.623C259.967 307.381 298.566 300.486 298.566 300.486C298.566 300.486 285.011 306.291 275.205 312.987C180.878 337.795 -1.34269 326.254 51.1164 300.879C95.4811 279.433 131.553 281.866 131.553 281.866Z" fill="url(#paint4_linearJava)"/>
<path d="M298.183 375.006C394.07 325.18 349.736 277.297 318.791 283.748C311.206 285.326 307.824 286.694 307.824 286.694C307.824 286.694 310.64 282.283 316.018 280.374C377.237 258.852 424.318 343.852 296.256 377.518C296.256 377.519 297.739 376.192 298.183 375.006Z" fill="url(#paint5_linearJava)"/>
<path d="M240.372 0.549561C240.372 0.549561 293.476 53.6713 190.005 135.357C107.032 200.884 171.085 238.245 189.971 280.932C141.538 237.234 105.995 198.767 129.84 162.965C164.839 110.41 261.798 84.9302 240.372 0.549561Z" fill="url(#paint6_linearJava)"/>
<path d="M140.975 510.025C233.015 515.917 374.352 506.756 377.7 463.206C377.7 463.206 371.265 479.715 301.634 492.827C223.076 507.61 126.186 505.884 68.7197 496.41C68.7211 496.408 80.4838 506.146 140.975 510.025Z" fill="url(#paint7_linearJava)"/>
<defs>
<linearGradient id="paint0_linearJava" x1="367" y1="-14" x2="3.0005" y2="510" gradientUnits="userSpaceOnUse">
<stop stop-color="white"/>
<stop offset="1" stop-color="#666666"/>
</linearGradient>
<linearGradient id="paint1_linearJava" x1="375" y1="-29.9999" x2="-17.0004" y2="502" gradientUnits="userSpaceOnUse">
<stop stop-color="white"/>
<stop offset="1" stop-color="#666666"/>
</linearGradient>
<linearGradient id="paint2_linearJava" x1="455" y1="-34" x2="-25" y2="518" gradientUnits="userSpaceOnUse">
<stop stop-color="white"/>
<stop offset="1" stop-color="#666666"/>
</linearGradient>
<linearGradient id="paint3_linearJava" x1="375" y1="-14" x2="1.0004" y2="514" gradientUnits="userSpaceOnUse">
<stop stop-color="white"/>
<stop offset="1" stop-color="#666666"/>
</linearGradient>
<linearGradient id="paint4_linearJava" x1="375" y1="-1.99995" x2="-9.00001" y2="510" gradientUnits="userSpaceOnUse">
<stop stop-color="white"/>
<stop offset="1" stop-color="#666666"/>
</linearGradient>
<linearGradient id="paint5_linearJava" x1="431" y1="-42" x2="-33" y2="510" gradientUnits="userSpaceOnUse">
<stop stop-color="white"/>
<stop offset="1" stop-color="#666666"/>
</linearGradient>
<linearGradient id="paint6_linearJava" x1="446.999" y1="0.999926" x2="-9.00051" y2="534" gradientUnits="userSpaceOnUse">
<stop stop-color="white"/>
<stop offset="1" stop-color="#666666"/>
</linearGradient>
<linearGradient id="paint7_linearJava" x1="378" y1="-5.99994" x2="-17" y2="512" gradientUnits="userSpaceOnUse">
<stop stop-color="white"/>
<stop offset="1" stop-color="#666666"/>
</linearGradient>
</defs>
</svg>
