<svg class="ionicon up-on-hover" viewBox="0 0 512 481" fill="none" xmlns="http://www.w3.org/2000/svg">
<g clip-path="url(#clip0)">
<mask id="path-1-inside-1" fill="white">
<path d="M420.953 155.899C415.499 153.936 410.006 152.108 404.474 150.415C405.391 146.481 406.237 142.525 407.012 138.547C419.492 74.601 411.332 23.0847 383.483 6.12616C356.817 -10.1469 313.086 6.81169 268.97 47.3594C264.633 51.3603 260.384 55.481 256.224 59.7215C253.451 56.9045 250.606 54.1474 247.691 51.4502C201.453 8.09285 155.108 -10.1694 127.291 6.84541C100.625 23.1522 92.7001 71.5779 103.932 132.186C105.055 138.18 106.317 144.147 107.718 150.089C101.344 151.993 95.0231 154.091 88.7643 156.382C34.6226 176.33 0 207.606 0 240.04C0 273.552 37.1611 307.155 93.6174 327.53C98.1968 329.171 102.819 330.695 107.484 332.104C105.969 338.465 104.629 344.897 103.462 351.4C92.7961 410.963 101.116 458.242 127.728 474.448C155.215 491.182 201.325 473.987 246.272 432.518C249.828 429.236 253.383 425.771 256.939 422.123C261.433 426.7 266.055 431.143 270.805 435.451C314.323 474.988 357.297 490.957 383.867 474.707C411.332 457.917 420.26 407.119 408.666 345.32C407.777 340.6 406.753 335.783 405.594 330.868C408.836 329.856 412.011 328.811 415.119 327.732C473.783 307.2 512 274.002 512 240.074C511.979 207.483 476.247 176.004 420.953 155.899V155.899ZM283.359 64.7788C321.149 30.0412 356.476 16.3305 372.582 26.1303C389.722 36.5707 396.389 78.6693 385.616 133.883C384.905 137.479 384.137 141.064 383.312 144.638C360.76 139.233 337.89 135.419 314.856 133.22C301.668 113.203 287.211 94.1483 271.583 76.1856C275.409 72.2747 279.327 68.4724 283.338 64.7788H283.359ZM151.172 267.753C155.802 277.194 160.64 286.518 165.689 295.726C170.83 305.121 176.188 314.377 181.763 323.495C165.914 321.68 150.164 319.005 134.576 315.483C139.098 300.064 144.666 284.049 151.172 267.753V267.753ZM151.172 213.439C144.773 197.492 139.354 181.803 134.906 166.654C149.519 163.204 165.092 160.383 181.326 158.248C175.886 167.193 170.652 176.27 165.625 185.478C160.598 194.686 155.77 204.006 151.14 213.439H151.172ZM162.799 240.602C169.54 225.79 176.8 211.262 184.579 197.02C192.351 182.785 200.625 168.875 209.399 155.292C224.631 154.078 240.246 153.438 256.021 153.438C271.797 153.438 287.508 154.078 302.729 155.303C311.411 168.857 319.635 182.717 327.4 196.885C335.165 211.053 342.521 225.512 349.468 240.265C342.613 255.129 335.275 269.716 327.453 284.027C319.695 298.262 311.518 312.212 302.921 325.878C287.721 327.002 271.989 327.62 255.989 327.62C239.99 327.62 224.556 327.092 209.634 326.069C200.795 312.441 192.454 298.471 184.611 284.161C176.768 269.851 169.486 255.331 162.767 240.602H162.799ZM346.386 295.568C351.541 286.143 356.49 276.594 361.233 266.922C367.735 282.454 373.473 298.329 378.427 314.482C362.655 318.224 346.709 321.094 330.653 323.08C336.071 314.022 341.316 304.851 346.386 295.568V295.568ZM361.02 213.45C356.298 203.972 351.388 194.607 346.29 185.354C341.312 176.229 336.125 167.216 330.728 158.315C347.058 160.495 362.726 163.395 377.414 166.935C372.691 182.719 367.22 198.244 361.02 213.45V213.45ZM256.235 92.6947C266.885 104.957 276.942 117.777 286.367 131.107C266.208 130.096 246.034 130.096 225.847 131.107C235.798 117.239 245.984 104.371 256.235 92.6947V92.6947ZM138.298 26.8158C155.428 16.3418 193.304 31.3112 233.228 68.7009C235.777 71.0947 238.347 73.6008 240.907 76.1969C225.2 94.157 210.64 113.195 197.325 133.186C174.342 135.368 151.518 139.122 128.997 144.425C127.696 138.91 126.523 133.359 125.477 127.769C115.825 75.8148 122.214 36.6493 138.298 26.8158ZM113.329 309.852C109.062 308.571 104.849 307.181 100.689 305.683C75.7302 296.692 55.1124 284.959 40.9583 272.181C28.2868 260.73 21.8658 249.3 21.8658 240.04C21.8658 220.362 49.6619 195.255 96.0173 178.229C101.841 176.094 107.715 174.142 113.638 172.374C120.522 195.686 128.86 218.493 138.597 240.647C128.744 263.107 120.303 286.225 113.329 309.852V309.852ZM231.862 415.121C211.991 433.462 192.088 446.465 174.542 453.017C158.777 458.894 146.223 459.063 138.64 454.444C122.491 444.61 115.771 406.636 124.933 355.704C126.021 349.711 127.266 343.717 128.667 337.723C151.413 342.886 174.466 346.411 197.666 348.276C211.112 368.371 225.791 387.517 241.611 405.591C238.433 408.884 235.18 412.053 231.862 415.121ZM256.843 389.026C246.475 377.214 236.129 364.144 226.039 350.096C235.844 350.501 245.828 350.703 255.989 350.703C266.421 350.703 276.746 350.467 286.921 349.984C277.531 363.528 267.492 376.559 256.843 389.026V389.026ZM389.658 421.156C386.608 438.508 380.475 450.083 372.891 454.714C356.753 464.581 322.248 451.758 285.044 417.942C280.778 414.076 276.511 409.929 272.17 405.58C287.682 387.435 302.018 368.212 315.08 348.04C338.409 345.957 361.574 342.184 384.411 336.745C385.456 341.196 386.38 345.556 387.184 349.827C392.314 377.136 393.05 401.837 389.658 421.156V421.156ZM408.218 305.806C405.423 306.784 402.543 307.728 399.621 308.65C392.46 285.228 383.797 262.347 373.691 240.163C383.418 218.276 391.742 195.726 398.607 172.666C403.845 174.273 408.932 175.959 413.828 177.746C461.207 194.963 490.113 220.452 490.113 240.04C490.113 260.943 458.893 288.072 408.218 305.806V305.806Z"/>
</mask>
<path d="M420.953 155.899C415.499 153.936 410.006 152.108 404.474 150.415C405.391 146.481 406.237 142.525 407.012 138.547C419.492 74.601 411.332 23.0847 383.483 6.12616C356.817 -10.1469 313.086 6.81169 268.97 47.3594C264.633 51.3603 260.384 55.481 256.224 59.7215C253.451 56.9045 250.606 54.1474 247.691 51.4502C201.453 8.09285 155.108 -10.1694 127.291 6.84541C100.625 23.1522 92.7001 71.5779 103.932 132.186C105.055 138.18 106.317 144.147 107.718 150.089C101.344 151.993 95.0231 154.091 88.7643 156.382C34.6226 176.33 0 207.606 0 240.04C0 273.552 37.1611 307.155 93.6174 327.53C98.1968 329.171 102.819 330.695 107.484 332.104C105.969 338.465 104.629 344.897 103.462 351.4C92.7961 410.963 101.116 458.242 127.728 474.448C155.215 491.182 201.325 473.987 246.272 432.518C249.828 429.236 253.383 425.771 256.939 422.123C261.433 426.7 266.055 431.143 270.805 435.451C314.323 474.988 357.297 490.957 383.867 474.707C411.332 457.917 420.26 407.119 408.666 345.32C407.777 340.6 406.753 335.783 405.594 330.868C408.836 329.856 412.011 328.811 415.119 327.732C473.783 307.2 512 274.002 512 240.074C511.979 207.483 476.247 176.004 420.953 155.899V155.899ZM283.359 64.7788C321.149 30.0412 356.476 16.3305 372.582 26.1303C389.722 36.5707 396.389 78.6693 385.616 133.883C384.905 137.479 384.137 141.064 383.312 144.638C360.76 139.233 337.89 135.419 314.856 133.22C301.668 113.203 287.211 94.1483 271.583 76.1856C275.409 72.2747 279.327 68.4724 283.338 64.7788H283.359ZM151.172 267.753C155.802 277.194 160.64 286.518 165.689 295.726C170.83 305.121 176.188 314.377 181.763 323.495C165.914 321.68 150.164 319.005 134.576 315.483C139.098 300.064 144.666 284.049 151.172 267.753V267.753ZM151.172 213.439C144.773 197.492 139.354 181.803 134.906 166.654C149.519 163.204 165.092 160.383 181.326 158.248C175.886 167.193 170.652 176.27 165.625 185.478C160.598 194.686 155.77 204.006 151.14 213.439H151.172ZM162.799 240.602C169.54 225.79 176.8 211.262 184.579 197.02C192.351 182.785 200.625 168.875 209.399 155.292C224.631 154.078 240.246 153.438 256.021 153.438C271.797 153.438 287.508 154.078 302.729 155.303C311.411 168.857 319.635 182.717 327.4 196.885C335.165 211.053 342.521 225.512 349.468 240.265C342.613 255.129 335.275 269.716 327.453 284.027C319.695 298.262 311.518 312.212 302.921 325.878C287.721 327.002 271.989 327.62 255.989 327.62C239.99 327.62 224.556 327.092 209.634 326.069C200.795 312.441 192.454 298.471 184.611 284.161C176.768 269.851 169.486 255.331 162.767 240.602H162.799ZM346.386 295.568C351.541 286.143 356.49 276.594 361.233 266.922C367.735 282.454 373.473 298.329 378.427 314.482C362.655 318.224 346.709 321.094 330.653 323.08C336.071 314.022 341.316 304.851 346.386 295.568V295.568ZM361.02 213.45C356.298 203.972 351.388 194.607 346.29 185.354C341.312 176.229 336.125 167.216 330.728 158.315C347.058 160.495 362.726 163.395 377.414 166.935C372.691 182.719 367.22 198.244 361.02 213.45V213.45ZM256.235 92.6947C266.885 104.957 276.942 117.777 286.367 131.107C266.208 130.096 246.034 130.096 225.847 131.107C235.798 117.239 245.984 104.371 256.235 92.6947V92.6947ZM138.298 26.8158C155.428 16.3418 193.304 31.3112 233.228 68.7009C235.777 71.0947 238.347 73.6008 240.907 76.1969C225.2 94.157 210.64 113.195 197.325 133.186C174.342 135.368 151.518 139.122 128.997 144.425C127.696 138.91 126.523 133.359 125.477 127.769C115.825 75.8148 122.214 36.6493 138.298 26.8158ZM113.329 309.852C109.062 308.571 104.849 307.181 100.689 305.683C75.7302 296.692 55.1124 284.959 40.9583 272.181C28.2868 260.73 21.8658 249.3 21.8658 240.04C21.8658 220.362 49.6619 195.255 96.0173 178.229C101.841 176.094 107.715 174.142 113.638 172.374C120.522 195.686 128.86 218.493 138.597 240.647C128.744 263.107 120.303 286.225 113.329 309.852V309.852ZM231.862 415.121C211.991 433.462 192.088 446.465 174.542 453.017C158.777 458.894 146.223 459.063 138.64 454.444C122.491 444.61 115.771 406.636 124.933 355.704C126.021 349.711 127.266 343.717 128.667 337.723C151.413 342.886 174.466 346.411 197.666 348.276C211.112 368.371 225.791 387.517 241.611 405.591C238.433 408.884 235.18 412.053 231.862 415.121ZM256.843 389.026C246.475 377.214 236.129 364.144 226.039 350.096C235.844 350.501 245.828 350.703 255.989 350.703C266.421 350.703 276.746 350.467 286.921 349.984C277.531 363.528 267.492 376.559 256.843 389.026V389.026ZM389.658 421.156C386.608 438.508 380.475 450.083 372.891 454.714C356.753 464.581 322.248 451.758 285.044 417.942C280.778 414.076 276.511 409.929 272.17 405.58C287.682 387.435 302.018 368.212 315.08 348.04C338.409 345.957 361.574 342.184 384.411 336.745C385.456 341.196 386.38 345.556 387.184 349.827C392.314 377.136 393.05 401.837 389.658 421.156V421.156ZM408.218 305.806C405.423 306.784 402.543 307.728 399.621 308.65C392.46 285.228 383.797 262.347 373.691 240.163C383.418 218.276 391.742 195.726 398.607 172.666C403.845 174.273 408.932 175.959 413.828 177.746C461.207 194.963 490.113 220.452 490.113 240.04C490.113 260.943 458.893 288.072 408.218 305.806V305.806Z" fill="url(#paint0_linearReactjs)" stroke="url(#paint1_linearReactjs)" stroke-width="44" mask="url(#path-1-inside-1)"/>
<path d="M255.892 277.412L255.88 277.412L255.867 277.412C251.527 277.406 247.21 276.483 243.153 274.669C239.094 272.854 235.353 270.173 232.168 266.737C228.98 263.299 226.416 259.177 224.658 254.588C222.899 249.998 221.99 245.056 222 240.051L222 240.041V240.03C222 232.461 224.093 225.121 227.935 218.944C231.773 212.774 237.146 208.094 243.28 205.369C249.401 202.649 256.083 201.958 262.519 203.343C268.962 204.73 274.995 208.166 279.805 213.353C284.622 218.55 287.977 225.259 289.333 232.669C290.689 240.08 289.964 247.749 287.277 254.676C284.591 261.599 280.105 267.382 274.502 271.382C268.911 275.374 262.436 277.435 255.892 277.412ZM211.001 240.03H211.001H211.001Z" fill="url(#paint2_linearReactjs)" stroke="url(#paint3_linearReactjs)" stroke-width="22"/>
</g>
<defs>
<linearGradient id="paint0_linearReactjs" x1="512" y1="0" x2="31.9366" y2="511.003" gradientUnits="userSpaceOnUse">
<stop stop-color="#15AED4"/>
<stop offset="1" stop-opacity="0.26"/>
</linearGradient>
<linearGradient id="paint1_linearReactjs" x1="512" y1="-10.334" x2="32.5722" y2="510.956" gradientUnits="userSpaceOnUse">
<stop stop-color="white"/>
<stop offset="1" stop-color="#666666"/>
</linearGradient>
<linearGradient id="paint2_linearReactjs" x1="522" y1="12.2129" x2="22.6201" y2="503.659" gradientUnits="userSpaceOnUse">
<stop stop-color="#15AED4"/>
<stop offset="1" stop-opacity="0.26"/>
</linearGradient>
<linearGradient id="paint3_linearReactjs" x1="256" y1="191.648" x2="256" y2="288.412" gradientUnits="userSpaceOnUse">
<stop stop-color="white"/>
<stop offset="1" stop-color="#666666"/>
</linearGradient>
<clipPath id="clip0">
<rect width="512" height="481" fill="white"/>
</clipPath>
</defs>
</svg>
