<svg className="ionicon up-on-hover" viewBox="0 0 454 512" fill="none" xmlns="http://www.w3.org/2000/svg">
    <g clip-path="url(#clip0)">
        <path d="M227.19 512C220.134 512 213.549 510.118 207.434 506.826L144.875 469.666C135.467 464.492 140.171 462.611 142.993 461.67C155.693 457.437 158.045 456.496 171.215 448.97C172.627 448.029 174.508 448.5 175.919 449.44L223.897 478.133C225.779 479.074 228.13 479.074 229.542 478.133L417.22 369.477C419.102 368.536 420.042 366.655 420.042 364.303V147.462C420.042 145.11 419.102 143.228 417.22 142.288L229.542 34.102C227.66 33.1612 225.308 33.1612 223.897 34.102L36.2186 142.288C34.3372 143.228 33.3964 145.58 33.3964 147.462V364.303C33.3964 366.185 34.3372 368.536 36.2186 369.477L87.4892 399.111C115.241 413.222 132.645 396.759 132.645 380.296V166.277C132.645 163.454 134.997 160.632 138.289 160.632H162.278C165.101 160.632 167.923 162.984 167.923 166.277V380.296C167.923 417.455 147.697 439.092 112.419 439.092C101.6 439.092 93.1337 439.092 69.1447 427.333L19.7556 399.111C7.52595 392.055 0 378.885 0 364.774V147.932C0 133.821 7.52595 120.65 19.7556 113.595L207.434 4.9389C219.193 -1.6463 235.186 -1.6463 246.945 4.9389L434.624 113.595C446.853 120.65 454.379 133.821 454.379 147.932V364.774C454.379 378.885 446.853 392.055 434.624 399.111L246.945 507.767C240.83 510.589 233.775 512 227.19 512ZM285.045 362.892C202.73 362.892 185.797 325.262 185.797 293.277C185.797 290.455 188.149 287.633 191.441 287.633H215.901C218.723 287.633 221.075 289.514 221.075 292.336C224.838 317.266 235.656 329.496 285.516 329.496C325.027 329.496 341.96 320.559 341.96 299.392C341.96 287.162 337.257 278.225 275.638 272.11C224.367 266.936 192.382 255.647 192.382 214.725C192.382 176.625 224.367 154.047 277.99 154.047C338.198 154.047 367.831 174.743 371.594 219.899C371.594 221.31 371.124 222.721 370.183 224.132C369.242 225.073 367.831 226.014 366.42 226.014H341.96C339.609 226.014 337.257 224.132 336.786 221.78C331.142 195.91 316.56 187.443 277.99 187.443C234.716 187.443 229.542 202.495 229.542 213.784C229.542 227.425 235.656 231.658 293.983 239.184C351.838 246.71 379.12 257.529 379.12 297.981C378.65 339.373 344.783 362.892 285.045 362.892Z" fill="url(#paint0_linearNodejs)" />
    </g>
    <defs>
        <linearGradient id="paint0_linearNodejs" x1="454.844" y1="-7.7322e-06" x2="2.07519e-07" y2="511.95" gradientUnits="userSpaceOnUse">
            <stop stop-color="white" />
            <stop offset="1" stop-color="#666666" />
        </linearGradient>
        <clipPath id="clip0">
            <rect width="453.536" height="512" fill="white" />
        </clipPath>
    </defs>
</svg>