<svg width="512" height="512" viewBox="0 0 512 512" fill="none" xmlns="http://www.w3.org/2000/svg">
<path d="M214.948 462.493L256.208 499L299.76 462.493L412.078 268.549L435 163.592L375.403 56.3521L299.76 13H214.948L132.429 56.3521L82 163.592L104.922 268.549L214.948 462.493Z" fill="url(#paint0_linearLocation)"/>
<mask id="path-2-inside-1" fill="white">
<path d="M256 220C276.435 220 293 203.435 293 183C293 162.565 276.435 146 256 146C235.565 146 219 162.565 219 183C219 203.435 235.565 220 256 220Z"/>
</mask>
<path d="M256 220C276.435 220 293 203.435 293 183C293 162.565 276.435 146 256 146C235.565 146 219 162.565 219 183C219 203.435 235.565 220 256 220Z" stroke="url(#paint1_linearLocation)" strokeWidth="40" mask="url(#path-2-inside-1)"/>
<mask id="path-3-inside-2" fill="white">
<path d="M256 0C155.098 0 73 78.4601 73 174.864C73 220.774 93.9421 281.828 135.243 356.333C168.412 416.153 206.784 470.246 226.743 497.161C230.115 501.76 234.525 505.5 239.614 508.078C244.703 510.656 250.329 512 256.034 512C261.74 512 267.365 510.656 272.455 508.078C277.544 505.5 281.953 501.76 285.326 497.161C305.25 470.246 343.657 416.153 376.826 356.333C418.058 281.851 439 220.797 439 174.864C439 78.4601 356.902 0 256 0ZM256 256.01C241.522 256.01 227.37 251.72 215.332 243.682C203.295 235.645 193.912 224.221 188.372 210.856C182.832 197.49 181.382 182.783 184.207 168.594C187.031 154.405 194.003 141.372 204.24 131.142C214.477 120.913 227.52 113.946 241.719 111.124C255.919 108.302 270.637 109.75 284.012 115.286C297.388 120.822 308.82 130.198 316.864 142.226C324.907 154.255 329.2 168.397 329.2 182.864C329.179 202.257 321.46 220.849 307.737 234.562C294.014 248.275 275.407 255.988 256 256.01Z"/>
</mask>
<path d="M256 0C155.098 0 73 78.4601 73 174.864C73 220.774 93.9421 281.828 135.243 356.333C168.412 416.153 206.784 470.246 226.743 497.161C230.115 501.76 234.525 505.5 239.614 508.078C244.703 510.656 250.329 512 256.034 512C261.74 512 267.365 510.656 272.455 508.078C277.544 505.5 281.953 501.76 285.326 497.161C305.25 470.246 343.657 416.153 376.826 356.333C418.058 281.851 439 220.797 439 174.864C439 78.4601 356.902 0 256 0ZM256 256.01C241.522 256.01 227.37 251.72 215.332 243.682C203.295 235.645 193.912 224.221 188.372 210.856C182.832 197.49 181.382 182.783 184.207 168.594C187.031 154.405 194.003 141.372 204.24 131.142C214.477 120.913 227.52 113.946 241.719 111.124C255.919 108.302 270.637 109.75 284.012 115.286C297.388 120.822 308.82 130.198 316.864 142.226C324.907 154.255 329.2 168.397 329.2 182.864C329.179 202.257 321.46 220.849 307.737 234.562C294.014 248.275 275.407 255.988 256 256.01Z" stroke="url(#paint2_linearLocation)" strokeWidth="40" mask="url(#path-3-inside-2)"/>
<defs>
<linearGradient id="paint0_linearLocation" x1="467.091" y1="-48.6056" x2="84.3735" y2="500.654" gradientUnits="userSpaceOnUse">
<stop stopColor="#15AED4"/>
<stop offset="1" stopOpacity="0.28"/>
</linearGradient>
<linearGradient id="paint1_linearLocation" x1="256" y1="146" x2="256" y2="220" gradientUnits="userSpaceOnUse">
<stop stopColor="white"/>
<stop offset="1" stopColor="#666666"/>
</linearGradient>
<linearGradient id="paint2_linearLocation" x1="256" y1="0" x2="256" y2="512" gradientUnits="userSpaceOnUse">
<stop stopColor="white"/>
<stop offset="1" stopColor="#666666"/>
</linearGradient>
</defs>
</svg>
