<svg className='ionicon up-on-hover' viewBox="0 0 512 512" fill="none" xmlns="http://www.w3.org/2000/svg">
<mask id="path-1-inside-1-Pithon" fill="white">
<path d="M322.285 5.01028C301.039 1.51318 269.942 -0.098232 248.834 0.00462389C229.049 0.0275263 209.3 1.70189 189.794 5.01028C137.52 14.153 128 33.2385 128 68.4838V109.718H255.999V128.003H86.4228C38.9258 128.003 0.377309 184.768 0.000167396 254.996V256.002C-0.0162977 268.28 1.18192 280.53 3.5773 292.573C14.1944 345.463 47.2686 384 86.4228 384H109.714V322.286C109.714 286.515 133.531 253.773 172.571 246.744L183.851 245.339H322.285C328.099 245.362 333.89 244.593 339.496 243.053C352.315 239.63 363.637 232.053 371.69 221.509C379.743 210.964 384.072 198.047 383.999 184.78V68.4838C383.999 35.4328 355.793 10.5074 322.285 5.01028ZM186.205 84.0036C181.594 84.0194 177.082 82.6655 173.242 80.1136C169.401 77.5617 166.405 73.9267 164.633 69.6697C162.861 65.4126 162.393 60.7252 163.289 56.202C164.185 51.6787 166.404 47.5233 169.664 44.2628C172.925 41.0022 177.08 38.7834 181.603 37.8877C186.127 36.992 190.814 37.4598 195.071 39.2317C199.328 41.0036 202.963 43.9998 205.515 47.8404C208.067 51.6809 209.421 56.1928 209.405 60.8039C209.407 63.8509 208.808 66.8684 207.642 69.6838C206.477 72.4992 204.768 75.0573 202.614 77.2119C200.459 79.3665 197.901 81.0753 195.085 82.2407C192.27 83.4061 189.252 84.0051 186.205 84.0036V84.0036Z"/>
</mask>
<path d="M322.285 5.01028C301.039 1.51318 269.942 -0.098232 248.834 0.00462389C229.049 0.0275263 209.3 1.70189 189.794 5.01028C137.52 14.153 128 33.2385 128 68.4838V109.718H255.999V128.003H86.4228C38.9258 128.003 0.377309 184.768 0.000167396 254.996V256.002C-0.0162977 268.28 1.18192 280.53 3.5773 292.573C14.1944 345.463 47.2686 384 86.4228 384H109.714V322.286C109.714 286.515 133.531 253.773 172.571 246.744L183.851 245.339H322.285C328.099 245.362 333.89 244.593 339.496 243.053C352.315 239.63 363.637 232.053 371.69 221.509C379.743 210.964 384.072 198.047 383.999 184.78V68.4838C383.999 35.4328 355.793 10.5074 322.285 5.01028ZM186.205 84.0036C181.594 84.0194 177.082 82.6655 173.242 80.1136C169.401 77.5617 166.405 73.9267 164.633 69.6697C162.861 65.4126 162.393 60.7252 163.289 56.202C164.185 51.6787 166.404 47.5233 169.664 44.2628C172.925 41.0022 177.08 38.7834 181.603 37.8877C186.127 36.992 190.814 37.4598 195.071 39.2317C199.328 41.0036 202.963 43.9998 205.515 47.8404C208.067 51.6809 209.421 56.1928 209.405 60.8039C209.407 63.8509 208.808 66.8684 207.642 69.6838C206.477 72.4992 204.768 75.0573 202.614 77.2119C200.459 79.3665 197.901 81.0753 195.085 82.2407C192.27 83.4061 189.252 84.0051 186.205 84.0036V84.0036Z" fill="url(#paint0_linearPithon)" stroke="url(#paint1_linearPithon)" stroke-width="40" mask="url(#path-1-inside-1-Pithon)"/>
<mask id="path-2-inside-2-Pithon" fill="white">
<path d="M506.604 211.428C494.375 162.731 462.707 128 425.576 128H405.336V182.228C405.336 227.451 375.622 260.194 339.348 265.805C335.683 266.373 331.981 266.66 328.273 266.662H189.805C183.932 266.657 178.082 267.406 172.4 268.891C146.903 275.588 128 296.799 128 324.308V440.616C128 473.759 161.303 493.187 193.977 502.684C233.074 514.055 275.668 516.113 322.456 502.684C353.53 493.804 383.999 475.85 383.999 440.616V402.285H255.999V383.999H425.576C459.221 383.999 488.375 355.508 502.661 313.931C508.935 295.264 512.089 275.692 511.998 255.999C512.03 240.978 510.219 226.009 506.604 211.428ZM325.153 425.142C329.764 425.126 334.276 426.48 338.117 429.032C341.958 431.584 344.954 435.219 346.726 439.476C348.498 443.733 348.965 448.42 348.07 452.943C347.174 457.467 344.955 461.622 341.695 464.883C338.434 468.143 334.279 470.362 329.755 471.258C325.232 472.153 320.545 471.686 316.287 469.914C312.03 468.142 308.395 465.146 305.843 461.305C303.291 457.464 301.938 452.953 301.953 448.341C301.952 445.294 302.551 442.277 303.716 439.461C304.882 436.646 306.591 434.088 308.745 431.933C310.9 429.779 313.458 428.07 316.273 426.905C319.089 425.739 322.106 425.14 325.153 425.142Z"/>
</mask>
<path d="M506.604 211.428C494.375 162.731 462.707 128 425.576 128H405.336V182.228C405.336 227.451 375.622 260.194 339.348 265.805C335.683 266.373 331.981 266.66 328.273 266.662H189.805C183.932 266.657 178.082 267.406 172.4 268.891C146.903 275.588 128 296.799 128 324.308V440.616C128 473.759 161.303 493.187 193.977 502.684C233.074 514.055 275.668 516.113 322.456 502.684C353.53 493.804 383.999 475.85 383.999 440.616V402.285H255.999V383.999H425.576C459.221 383.999 488.375 355.508 502.661 313.931C508.935 295.264 512.089 275.692 511.998 255.999C512.03 240.978 510.219 226.009 506.604 211.428ZM325.153 425.142C329.764 425.126 334.276 426.48 338.117 429.032C341.958 431.584 344.954 435.219 346.726 439.476C348.498 443.733 348.965 448.42 348.07 452.943C347.174 457.467 344.955 461.622 341.695 464.883C338.434 468.143 334.279 470.362 329.755 471.258C325.232 472.153 320.545 471.686 316.287 469.914C312.03 468.142 308.395 465.146 305.843 461.305C303.291 457.464 301.938 452.953 301.953 448.341C301.952 445.294 302.551 442.277 303.716 439.461C304.882 436.646 306.591 434.088 308.745 431.933C310.9 429.779 313.458 428.07 316.273 426.905C319.089 425.739 322.106 425.14 325.153 425.142Z" fill="url(#paint2_linearPithon)" stroke="url(#paint3_linearPithon)" stroke-width="40" mask="url(#path-2-inside-2-Pithon)"/>
<defs>
<linearGradient id="paint0_linearPithon" x1="522" y1="1.50898e-05" x2="2.88563e-06" y2="497" gradientUnits="userSpaceOnUse">
<stop stop-color="#15AED4"/>
<stop offset="1" stop-opacity="0.26"/>
</linearGradient>
<linearGradient id="paint1_linearPithon" x1="514" y1="-9.92029e-06" x2="-7.96071e-06" y2="501" gradientUnits="userSpaceOnUse">
<stop stop-color="white"/>
<stop offset="1" stop-color="#666666"/>
</linearGradient>
<linearGradient id="paint2_linearPithon" x1="512" y1="7.00001" x2="12" y2="512" gradientUnits="userSpaceOnUse">
<stop stop-color="#15AED4"/>
<stop offset="1" stop-opacity="0.26"/>
</linearGradient>
<linearGradient id="paint3_linearPithon" x1="512" y1="11" x2="-12" y2="512" gradientUnits="userSpaceOnUse">
<stop stop-color="white"/>
<stop offset="1" stop-color="#666666"/>
</linearGradient>
</defs>
</svg>