<svg className="ionicon up-on-hover" viewBox="0 0 512 512" fill="none" xmlns="http://www.w3.org/2000/svg">
<g clip-path="url(#clip0)">
<path d="M294 254.5C294 275.112 277.086 292 256 292C234.914 292 218 275.112 218 254.5C218 233.888 234.914 217 256 217C277.086 217 294 233.888 294 254.5Z" fill="url(#paint0_linearReactjsAlt)" stroke="url(#paint1_linearReactjsAlt)" stroke-width="20"/>
<path d="M256.004 169C319.298 169 377.743 177.948 421.404 192.736C447.702 201.643 468.372 212.671 482.254 224.067C496.433 235.706 502 246.388 502 254.532C502 263.153 495.996 274.526 480.811 286.824C465.947 298.863 443.797 310.481 415.525 319.696C372.892 333.592 316.193 341 256.004 341C194.171 341 136.269 334.028 93.2567 319.568C65.9906 310.399 44.6812 298.73 30.3984 286.697C15.814 274.409 10 263.043 10 254.532C10 246.351 15.3535 235.758 28.9932 224.278C42.3897 213.002 62.4687 202.053 88.3682 193.17C132.168 178.147 192.066 169 255.996 169H256.004Z" stroke="url(#paint2_linearReactjsAlt)" stroke-width="20"/>
<path d="M117.358 367.66C125.875 323.428 147.173 268.727 178.265 214.902L179.998 211.94C211.715 157.713 248.905 112.132 283.845 82.1502L277.478 74.7299L283.845 82.1502C304.889 64.0931 324.997 51.9133 342.045 45.7332C359.432 39.4302 371.807 39.9681 379.174 44.1571C386.921 48.5621 393.937 59.4903 397.178 78.6051C400.358 97.3588 399.523 122.144 393.499 150.975L393.499 150.977C384.424 194.453 362.555 246.737 332.39 298.312C301.401 351.295 266.229 397.401 231.911 426.978L231.91 426.979C210.152 445.733 189.157 458.14 171.342 464.344C153.175 470.67 140.074 469.997 132.385 465.624L132.382 465.623C125.03 461.445 118.372 451.47 115.08 434.083C111.839 416.969 112.229 394.293 117.358 367.66Z" stroke="url(#paint3_linearReactjsAlt)" stroke-width="20"/>
<path d="M179.345 297.813L179.755 298.511C211.798 353.147 249.868 399.738 285.039 429.614L285.039 429.614C305.834 447.279 325.54 458.941 342.2 464.728C359.143 470.612 371.283 469.908 378.639 465.704L378.639 465.704C386.249 461.355 393.321 450.606 396.813 432.027C400.239 413.796 399.829 389.744 394.236 361.851C385.414 317.861 362.54 264.882 331.544 212.029C301.375 160.586 266.441 115.859 232.847 86.4142L232.846 86.414C210.571 66.8895 189.239 53.7949 171.174 47.1379C152.744 40.3467 139.588 40.8788 131.837 45.3082L131.837 45.3085C124.549 49.4725 117.958 59.667 114.833 77.5696C111.767 95.1364 112.419 118.32 117.758 145.256L179.345 297.813ZM179.345 297.813C147.85 243.962 126.594 189.79 117.758 145.257L179.345 297.813Z" stroke="url(#paint4_linearReactjsAlt)" stroke-width="20"/>
</g>
<defs>
<linearGradient id="paint0_linearReactjsAlt" x1="512.165" y1="-7.90892" x2="-21.2988" y2="482.832" gradientUnits="userSpaceOnUse">
<stop stop-color="#00D8FF"/>
<stop offset="1" stop-opacity="0.26"/>
</linearGradient>
<linearGradient id="paint1_linearReactjsAlt" x1="501" y1="28" x2="11" y2="466" gradientUnits="userSpaceOnUse">
<stop stop-color="white"/>
<stop offset="1" stop-color="#666666"/>
</linearGradient>
<linearGradient id="paint2_linearReactjsAlt" x1="502" y1="9.00003" x2="6.00005" y2="486" gradientUnits="userSpaceOnUse">
<stop stop-color="white"/>
<stop offset="1" stop-color="#666666"/>
</linearGradient>
<linearGradient id="paint3_linearReactjsAlt" x1="498" y1="31" x2="-17.9999" y2="479" gradientUnits="userSpaceOnUse">
<stop stop-color="white"/>
<stop offset="1" stop-color="#666666"/>
</linearGradient>
<linearGradient id="paint4_linearReactjsAlt" x1="510" y1="32" x2="-14" y2="479" gradientUnits="userSpaceOnUse">
<stop stop-color="white"/>
<stop offset="1" stop-color="#666666"/>
</linearGradient>
<clipPath id="clip0">
<rect width="512" height="512" fill="white"/>
</clipPath>
</defs>
</svg>
