<svg viewBox="0 0 512 512" fill="none" xmlns="http://www.w3.org/2000/svg">
<path d="M163.559 410.457C151.636 410.432 137.991 405.854 127.12 386.876C127.113 386.863 127.105 386.848 127.096 386.833C127.05 386.75 126.99 386.642 126.915 386.513C126.767 386.255 126.563 385.907 126.304 385.482C125.785 384.634 125.042 383.472 124.074 382.094C122.147 379.351 119.281 375.683 115.475 371.919C107.94 364.465 96.0867 356.033 80.0854 354.611L79.6436 354.571H79.2H79.0857C78.3667 354.571 76.1435 354.612 73.5355 354.992C71.312 355.316 67.0806 356.104 63.567 358.554C61.6223 359.909 59.27 362.216 58.1805 365.792C57.0582 369.476 57.7393 372.973 59.0019 375.728C61.2204 380.57 65.9821 384.825 71.737 388.868L72.4033 389.336L73.0232 389.636C73.0572 389.654 73.1148 389.686 73.1946 389.733C73.443 389.878 73.9068 390.162 74.546 390.61C75.8227 391.507 77.8063 393.067 80.1756 395.502C84.857 400.313 91.1791 408.68 96.499 422.39C96.5286 422.481 96.5621 422.583 96.5998 422.696C96.7374 423.106 96.9304 423.653 97.1863 424.319C97.6973 425.648 98.463 427.459 99.5432 429.589C101.697 433.838 105.147 439.45 110.399 445.061C121.11 456.507 138.81 467.371 166.4 467.371H166.438L166.475 467.371C171.774 467.331 177.06 466.96 182.304 466.261C182.357 473.505 182.417 479.849 182.467 485.097C182.527 491.439 182.571 496.18 182.571 498.971C182.571 500.152 182.191 500.979 181.9 501.325C181.788 501.458 181.653 501.575 181.409 501.684C181.155 501.797 180.558 502 179.429 502H179.408L179.387 502C178.816 502.002 178.247 501.956 177.684 501.862C80.3435 468.309 10 373.993 10 262.514C10 122.883 120.388 10 256 10C391.612 10 502 122.883 502 262.514C502 373.871 431.783 468.283 334.361 501.847C333.708 501.952 333.048 502.003 332.387 502L332.365 502H332.343C331.212 502 330.636 501.797 330.41 501.695C330.198 501.6 330.086 501.502 329.989 501.384C329.723 501.061 329.314 500.201 329.314 498.857C329.314 496.059 329.351 491.126 329.401 484.475C329.427 481.044 329.456 477.156 329.486 472.868C329.571 460.314 329.657 444.431 329.657 426.857C329.657 410.039 326.072 396.264 320.47 385.77C344.477 381.518 368.931 373.395 388.639 356.49C413.504 335.162 429.2 301.307 429.2 248.8C429.2 219.977 419.842 195.727 404.204 176.271C407.896 163.84 412.33 137.951 399.729 105.313L397.837 100.411L392.727 99.1888C390.039 98.5455 387.277 98.2612 384.514 98.3431C373.029 98.3852 351.429 102.675 318.157 125.032C277.32 114.437 234.452 114.437 193.614 125.032C160.342 102.675 138.742 98.3852 127.257 98.3431C124.494 98.2612 121.733 98.5455 119.044 99.1888L113.935 100.411L112.043 105.313C99.4473 137.936 103.871 163.816 107.562 176.253C91.9158 195.632 82.5714 219.894 82.5714 248.8C82.5714 301.194 98.2395 335.061 123.023 356.455C142.703 373.445 167.127 381.66 191.094 385.973C187.992 391.829 185.523 398.693 183.959 406.534C177.439 408.976 170.543 410.306 163.559 410.457Z" fill="url(#paint0_linearGithub)" stroke="url(#paint1_linearGithub)" strokeWidth="20"/>
<defs>
<linearGradient id="paint0_linearGithub" x1="434.286" y1="61.7143" x2="89.143" y2="492.571" gradientUnits="userSpaceOnUse">
<stop stopColor="#15AED4"/>
<stop offset="1" stopOpacity="0.26"/>
</linearGradient>
<linearGradient id="paint1_linearGithub" x1="436.571" y1="42.2857" x2="75.4287" y2="481.143" gradientUnits="userSpaceOnUse">
<stop stopColor="#FBFBFB"/>
<stop offset="1" stopColor="#666666"/>
</linearGradient>
</defs>
</svg>
