<svg width="512" height="512" viewBox="0 0 512 512" fill="none" xmlns="http://www.w3.org/2000/svg">
<path d="M120.81 182.561H217.378V190.237H129.662V248.004H212.148V255.679H129.662V319.102H218.384V326.777H120.81V182.561ZM226.029 182.561H236.29L281.757 245.984L328.23 182.561L391.441 102L287.591 252.649L341.106 326.777H330.443L281.757 259.315L232.869 326.777H222.408L276.325 252.649L226.029 182.561ZM344.928 190.237V182.561H454.976V190.237H404.277V326.777H395.425V190.237H344.928ZM0 182.561H11.0651L163.646 410.884L100.592 326.777L9.25442 193.468L8.85206 326.777H0V182.561ZM454.084 316.785C452.275 316.785 450.919 315.384 450.919 313.573C450.919 311.762 452.275 310.361 454.084 310.361C455.914 310.361 457.249 311.762 457.249 313.573C457.249 315.384 455.914 316.785 454.084 316.785ZM462.782 308.335H467.519C467.583 310.9 469.456 312.625 472.212 312.625C475.291 312.625 477.035 310.771 477.035 307.3V285.31H481.858V307.321C481.858 313.573 478.241 317.174 472.255 317.174C466.636 317.174 462.782 313.681 462.782 308.335ZM488.166 308.054H492.946C493.355 311.008 496.24 312.883 500.395 312.883C504.271 312.883 507.113 310.878 507.113 308.119C507.113 305.748 505.304 304.325 501.192 303.355L497.187 302.385C491.568 301.069 489.006 298.353 489.006 293.783C489.006 288.242 493.527 284.556 500.309 284.556C506.617 284.556 511.225 288.242 511.505 293.481H506.811C506.359 290.614 503.862 288.824 500.245 288.824C496.434 288.824 493.893 290.657 493.893 293.459C493.893 295.68 495.529 296.952 499.577 297.9L503 298.741C509.373 300.229 512 302.816 512 307.494C512 313.444 507.393 317.174 500.029 317.174C493.14 317.174 488.511 313.616 488.166 308.054Z" fill="url(#paint0_linear)"/>
<defs>
<linearGradient id="paint0_linear" x1="512" y1="102" x2="3.20765e-05" y2="411" gradientUnits="userSpaceOnUse">
<stop stopColor="white"/>
<stop offset="1" stopColor="#666666"/>
</linearGradient>
</defs>
</svg>